<svg xmlns="http://www.w3.org/2000/svg" xmlns:xlink="http://www.w3.org/1999/xlink" version="1.1" xml:space="preserve" width="53" height="15"><rect id="backgroundrect" width="100%" height="100%" x="0" y="0" fill="none" stroke="none"/>
<style type="text/css">
	.st0{fill:#38BAD4;}
</style>

<g class="currentLayer"><title>Layer 1</title><path class="st0" d="M51.9,6c-0.5-0.7-1.1-1.4-1.9-1.9c-0.8-0.5-1.6-0.9-2.6-1.3c-0.9-0.3-1.9-0.4-2.9-0.4c-0.6,0-1.3,0.1-2.1,0.3  c-0.8,0.2-1.5,0.5-2.2,0.9c-0.7,0.4-1.4,0.9-2,1.4c-0.6,0.5-1.1,1.1-1.4,1.8c1-0.9,2.2-1.7,3.6-2.3c1.4-0.6,2.8-0.9,4.4-0.9  c0.9,0,1.8,0.2,2.7,0.4c0.9,0.3,1.6,0.7,2.3,1.1c0.7,0.4,1.2,0.9,1.6,1.5C51.8,7.2,52,7.7,52,8.3c0,1.3-0.6,2.5-1.6,3.5  c-1.1,0.9-2.9,1.3-4.7,1.4c-0.5,0-1.2,0-1.7-0.1c-0.5,0-1-0.2-1.5-0.3c0.6-0.8,0.8-1.7,0.6-2.6l-0.3,0.2c0.3,0.9,0.1,1.7-0.7,2.3  c-2.2-0.6-4.3-1.6-6.5-2.9c-2.2-1.4-4.4-2.8-6.5-4.2c-0.8-0.5-1.6-1-2.3-1.5c-1.4-0.8-2.7-1.6-4-2.3C20.6,0.6,18.6,0,16.6,0  c-1.1,0-2.1,0.1-2.8,0.4c-0.7,0.2-1.3,0.6-1.8,1c-0.6-0.2-1.1-0.3-1.6-0.3C9.8,1,9.3,0.9,8.8,0.9C8,0.9,7.1,1.1,6.1,1.3  c-1,0.2-1.9,0.6-2.8,1C2.5,2.7,1.8,3.3,1.2,4C0.7,4.8,0.4,5.7,0.4,6.7c0,0.8,0.2,1.6,0.7,2.3c0.5,0.7,1.1,1.4,1.9,1.9  c0.8,0.6,1.6,0.9,2.6,1.3c0.9,0.3,1.5,0.5,2.5,0.5c0.6,0,1.7-0.1,2.5-0.3c0.7-0.2,1.5-0.5,2.2-0.9c0.7-0.4,1.4-0.9,2-1.4  c0.6-0.5,1.1-1.1,1.4-1.8c-1,0.9-2.2,1.7-3.6,2.2c-1.3,0.6-2.8,0.8-4.4,0.8c-0.9,0-1.8-0.1-2.7-0.4c-0.9-0.3-1.6-0.7-2.3-1.1  c-0.7-0.4-1-0.7-1.4-1.3C1.3,8.1,1.1,6.9,1.1,6.4c0-1.4,0.4-2.1,1.5-3.1c1.1-0.9,2.8-1.4,5.1-1.4c1.2,0,2.4,0.2,3.6,0.6  c-0.2,0.4-0.3,0.9-0.3,1.3c0,0.4,0,0.9,0.1,1.4l0.3-0.2c-0.1-0.5-0.2-1-0.1-1.4c0.1-0.4,0.2-0.8,0.4-1.1c2.1,0.7,4.2,1.8,6.3,3.1  c2.1,1.4,4.2,2.8,6.3,4.2c0.8,0.5,1.6,1.1,2.4,1.6c1.2,0.8,2.5,1.5,3.7,2.1c2,1.1,4,1.6,5.9,1.6c2.1,0,3.8-0.4,5.1-1.2  c0.4,0.1,0.9,0.2,1.3,0.2c0.5,0.1,1,0.1,1.5,0.1c0.8,0,1.6-0.1,2.6-0.3c1-0.2,1.9-0.6,2.8-1c0.8-0.5,1.6-1.1,2.1-1.8  c0.6-0.7,0.9-1.6,0.9-2.7C52.6,7.5,52.4,6.7,51.9,6z M39.1,14.1c-0.6,0.1-1.1,0.1-1.6,0.1c-1.7,0-3.5-0.5-5.5-1.6  c-1.7-0.9-3.4-2-5.2-3.1c-0.3-0.2-0.6-0.4-0.9-0.6c-2.2-1.4-4.3-2.8-6.6-4.2c-2.2-1.4-4.4-2.4-6.5-3.1c0.8-0.5,1.8-0.8,2.8-0.8  c1.1,0,2.3,0.3,3.6,0.8c1.3,0.6,2.6,1.2,4,2c1.2,0.7,2.3,1.4,3.6,2.3c0.2,0.1,0.4,0.3,0.7,0.4c1.5,1,2.9,2,4.4,2.9  c1.5,0.9,3,1.8,4.5,2.6c1.5,0.8,3,1.4,4.4,1.8C40.2,13.8,39.7,14,39.1,14.1z" id="svg_1"/></g></svg>