<svg xmlns="http://www.w3.org/2000/svg" xmlns:xlink="http://www.w3.org/1999/xlink" preserveAspectRatio="xMidYMid" width="36" height="392" viewBox="0 0 36 392">
  <defs>
    <style>
      .cls-1 {
        fill: #c0a06c;
      }

      .cls-1, .cls-2 {
        fill-rule: evenodd;
      }

      .cls-2 {
        fill: #c0a06f;
      }
    </style>
  </defs>
  <g>
    <path d="M9.000,392.000 L9.000,368.000 L35.000,368.000 L35.000,392.000 L9.000,392.000 ZM34.000,369.000 L10.000,369.000 L10.000,391.000 L34.000,391.000 L34.000,369.000 ZM13.000,370.000 L32.000,370.000 C32.552,370.000 33.000,370.448 33.000,371.000 L33.000,381.000 C33.000,381.552 32.552,382.000 32.000,382.000 L13.000,382.000 C12.448,382.000 12.000,381.552 12.000,381.000 L12.000,371.000 C12.000,370.448 12.448,370.000 13.000,370.000 ZM13.000,381.000 L32.000,381.000 L32.000,371.000 L13.000,371.000 L13.000,381.000 ZM27.000,380.000 C24.791,380.000 23.000,378.209 23.000,376.000 C23.000,373.791 24.791,372.000 27.000,372.000 C29.209,372.000 31.000,373.791 31.000,376.000 C31.000,378.209 29.209,380.000 27.000,380.000 ZM27.000,373.000 C25.343,373.000 24.000,374.343 24.000,376.000 C24.000,377.657 25.343,379.000 27.000,379.000 C28.657,379.000 30.000,377.657 30.000,376.000 C30.000,374.343 28.657,373.000 27.000,373.000 ZM27.000,378.000 C25.895,378.000 25.000,377.105 25.000,376.000 C25.000,374.895 25.895,374.000 27.000,374.000 C28.105,374.000 29.000,374.895 29.000,376.000 C29.000,377.105 28.105,378.000 27.000,378.000 ZM18.000,380.000 C15.791,380.000 14.000,378.209 14.000,376.000 C14.000,373.791 15.791,372.000 18.000,372.000 C20.209,372.000 22.000,373.791 22.000,376.000 C22.000,378.209 20.209,380.000 18.000,380.000 ZM18.000,373.000 C16.343,373.000 15.000,374.343 15.000,376.000 C15.000,377.657 16.343,379.000 18.000,379.000 C19.657,379.000 21.000,377.657 21.000,376.000 C21.000,374.343 19.657,373.000 18.000,373.000 ZM18.000,378.000 C16.895,378.000 16.000,377.105 16.000,376.000 C16.000,374.895 16.895,374.000 18.000,374.000 C19.105,374.000 20.000,374.895 20.000,376.000 C20.000,377.105 19.105,378.000 18.000,378.000 ZM19.000,364.000 L12.000,364.000 L12.000,366.000 L8.667,363.500 L12.000,361.000 L12.000,363.000 L19.000,363.000 L19.000,361.000 L22.000,363.500 L19.000,366.000 L19.000,364.000 ZM7.000,378.000 L4.500,381.000 L2.000,378.000 L4.000,378.000 L4.000,371.000 L2.000,371.000 L4.500,367.667 L7.000,371.000 L5.000,371.000 L5.000,378.000 L7.000,378.000 Z" class="cls-1"/>
    <path d="M9.000,348.000 L9.000,324.000 L35.000,324.000 L35.000,348.000 L9.000,348.000 ZM34.000,325.000 L10.000,325.000 L10.000,335.000 L21.000,335.000 L21.000,330.000 L22.000,330.000 L22.000,335.000 L22.000,335.333 L22.000,336.000 L22.000,337.000 L21.000,337.000 L21.000,336.000 L10.000,336.000 L10.000,347.000 L21.000,347.000 L21.000,340.000 L22.000,340.000 L22.000,347.000 L34.000,347.000 L34.000,325.000 ZM19.000,320.000 L12.000,320.000 L12.000,322.000 L8.667,319.500 L12.000,317.000 L12.000,319.000 L19.000,319.000 L19.000,317.000 L22.000,319.500 L19.000,322.000 L19.000,320.000 ZM7.000,334.000 L4.500,337.000 L2.000,334.000 L4.000,334.000 L4.000,327.000 L2.000,327.000 L4.500,323.667 L7.000,327.000 L5.000,327.000 L5.000,334.000 L7.000,334.000 Z" class="cls-1"/>
    <path d="M31.000,289.000 L31.000,301.000 C31.000,302.129 30.121,303.000 29.000,303.000 L25.000,303.000 C23.879,303.000 23.000,302.129 23.000,301.000 L23.000,290.000 C18.921,289.554 13.937,288.160 12.671,287.920 C12.469,288.320 12.164,288.674 11.817,288.876 L9.681,290.122 C9.475,290.242 9.268,290.303 9.066,290.303 C8.519,290.303 8.000,289.635 8.000,289.000 L8.000,279.000 C8.000,278.365 8.519,278.063 9.066,278.063 C9.268,278.063 9.475,278.124 9.681,278.244 L11.817,279.489 C12.117,279.664 12.385,279.953 12.582,280.285 C14.569,279.654 24.639,276.456 25.333,276.259 C28.963,275.232 32.746,277.370 33.766,281.025 C34.623,284.093 33.605,287.451 31.000,289.000 ZM12.060,281.428 C12.060,281.428 11.737,280.452 11.383,280.245 L9.247,279.000 C9.148,278.942 9.087,278.936 9.066,278.936 C9.056,278.936 9.050,278.937 9.049,278.938 C9.040,278.945 9.004,279.002 9.004,279.141 C9.004,279.141 8.943,288.596 9.000,289.000 C9.057,289.404 11.383,288.121 11.383,288.121 C11.737,287.914 12.000,287.412 12.000,287.000 L12.060,286.938 L12.060,281.428 ZM24.000,297.000 L25.000,297.000 L25.000,294.000 L24.000,294.000 L24.000,297.000 ZM24.000,293.000 C24.846,292.927 25.956,293.231 26.000,294.000 L26.000,297.000 C25.934,297.890 25.042,297.956 24.000,298.000 L24.000,301.000 C24.000,301.647 24.357,302.000 25.000,302.000 L29.000,302.000 C29.643,302.000 30.000,301.647 30.000,301.000 L30.000,290.000 C30.000,290.000 23.778,289.979 24.000,290.000 L24.000,293.000 ZM32.931,281.261 C32.041,278.070 28.737,276.203 25.568,277.100 C24.901,277.289 14.963,280.445 12.895,281.102 C12.915,281.212 12.927,281.321 12.927,281.428 L12.927,286.938 C12.927,286.984 12.925,287.031 12.921,287.078 C15.185,287.501 26.034,289.459 28.799,288.677 C31.969,287.779 33.822,284.453 32.931,281.261 ZM27.000,286.000 C25.343,286.000 24.000,284.657 24.000,283.000 C24.000,281.343 25.343,280.000 27.000,280.000 C28.657,280.000 30.000,281.343 30.000,283.000 C30.000,284.657 28.657,286.000 27.000,286.000 ZM27.000,281.000 C25.895,281.000 25.000,281.895 25.000,283.000 C25.000,284.105 25.895,285.000 27.000,285.000 C28.105,285.000 29.000,284.105 29.000,283.000 C29.000,281.895 28.105,281.000 27.000,281.000 ZM5.500,286.902 L0.500,288.955 C0.224,289.069 0.000,288.963 0.000,288.720 C0.000,288.477 0.224,288.188 0.500,288.074 L5.500,286.021 C5.776,285.907 6.000,286.013 6.000,286.256 C6.000,286.499 5.776,286.788 5.500,286.902 ZM5.500,284.000 L0.500,284.000 C0.224,284.000 0.000,283.776 0.000,283.500 C0.000,283.224 0.224,283.000 0.500,283.000 L5.500,283.000 C5.776,283.000 6.000,283.224 6.000,283.500 C6.000,283.776 5.776,284.000 5.500,284.000 ZM5.500,280.762 L0.500,278.430 C0.224,278.301 0.000,277.973 0.000,277.697 C0.000,277.421 0.224,277.301 0.500,277.430 L5.500,279.762 C5.776,279.890 6.000,280.219 6.000,280.495 C6.000,280.771 5.776,280.890 5.500,280.762 Z" class="cls-2"/>
    <path d="M31.444,263.000 C31.168,263.000 30.905,262.776 30.856,262.500 L28.211,247.500 C28.162,247.224 28.347,247.000 28.623,247.000 C28.899,247.000 29.162,247.224 29.211,247.500 L31.856,262.500 C31.905,262.776 31.720,263.000 31.444,263.000 ZM28.500,246.000 L27.950,246.000 L17.050,246.000 L16.500,246.000 L16.050,246.000 C16.037,245.832 16.000,245.671 16.000,245.500 C16.000,241.910 18.910,239.000 22.500,239.000 C26.090,239.000 29.000,241.910 29.000,245.500 C29.000,245.671 28.963,245.832 28.950,246.000 L28.500,246.000 ZM22.500,240.000 C19.634,240.000 17.307,242.201 17.050,245.000 L27.950,245.000 C27.693,242.201 25.366,240.000 22.500,240.000 ZM15.500,233.000 C11.872,233.000 8.695,235.577 8.000,239.000 L8.000,262.500 C8.000,262.776 7.776,263.000 7.500,263.000 C7.224,263.000 7.000,262.776 7.000,262.500 L7.000,237.500 C7.000,237.224 7.224,237.000 7.500,237.000 C7.554,237.000 7.603,237.015 7.652,237.031 C9.014,234.074 12.048,232.000 15.500,232.000 C19.682,232.000 22.290,235.022 23.000,239.000 L22.500,239.000 L22.000,239.000 C21.305,235.577 19.128,233.000 15.500,233.000 ZM16.554,247.000 C16.859,247.000 17.062,247.224 17.009,247.500 L14.090,262.500 C14.036,262.776 13.746,263.000 13.441,263.000 C13.136,263.000 12.933,262.776 12.987,262.500 L15.905,247.500 C15.959,247.224 16.249,247.000 16.554,247.000 ZM19.558,247.000 C19.837,247.000 20.034,247.224 19.997,247.500 L18.025,262.500 C17.989,262.776 17.733,263.000 17.454,263.000 C17.175,263.000 16.978,262.776 17.014,262.500 L18.987,247.500 C19.023,247.224 19.279,247.000 19.558,247.000 ZM22.500,247.000 C22.776,247.000 23.000,247.224 23.000,247.500 L23.000,262.500 C23.000,262.776 22.776,263.000 22.500,263.000 C22.224,263.000 22.000,262.776 22.000,262.500 L22.000,247.500 C22.000,247.224 22.224,247.000 22.500,247.000 ZM25.500,247.000 C25.776,247.000 26.029,247.224 26.065,247.500 L28.017,262.500 C28.053,262.776 27.858,263.000 27.582,263.000 C27.306,263.000 27.053,262.776 27.017,262.500 L25.065,247.500 C25.029,247.224 25.224,247.000 25.500,247.000 Z" class="cls-2"/>
    <path d="M31.000,218.000 L31.000,219.000 C31.000,219.552 30.552,220.000 30.000,220.000 L26.000,220.000 C25.448,220.000 25.000,219.552 25.000,219.000 L25.000,218.000 L10.000,218.000 L10.000,219.000 C10.000,219.552 9.552,220.000 9.000,220.000 L5.000,220.000 C4.448,220.000 4.000,219.552 4.000,219.000 L4.000,218.000 C2.895,218.000 2.000,217.105 2.000,216.000 L2.000,196.000 C2.000,194.895 2.895,194.000 4.000,194.000 L31.000,194.000 C32.105,194.000 33.000,194.895 33.000,196.000 L33.000,216.000 C33.000,217.105 32.105,218.000 31.000,218.000 ZM26.000,219.000 L30.000,219.000 L30.000,218.000 L26.000,218.000 L26.000,219.000 ZM5.000,219.000 L9.000,219.000 L9.000,218.000 L5.000,218.000 L5.000,219.000 ZM32.000,197.000 C32.000,195.895 31.105,195.000 30.000,195.000 L5.000,195.000 C3.895,195.000 3.000,195.895 3.000,197.000 L3.000,215.000 C3.000,216.105 3.895,217.000 5.000,217.000 L9.000,217.000 L26.000,217.000 L30.000,217.000 C31.105,217.000 32.000,216.105 32.000,215.000 L32.000,197.000 ZM29.000,216.000 L6.000,216.000 C4.895,216.000 4.000,215.105 4.000,214.000 L4.000,198.000 C4.000,196.895 4.895,196.000 6.000,196.000 L29.000,196.000 C30.105,196.000 31.000,196.895 31.000,198.000 L31.000,214.000 C31.000,215.105 30.105,216.000 29.000,216.000 ZM30.000,199.000 C30.000,197.895 29.105,197.000 28.000,197.000 L7.000,197.000 C5.895,197.000 5.000,197.895 5.000,199.000 L5.000,213.000 C5.000,214.105 5.895,215.000 7.000,215.000 L28.000,215.000 C29.105,215.000 30.000,214.105 30.000,213.000 L30.000,199.000 ZM26.000,208.000 L20.000,208.000 C19.448,208.000 19.000,207.552 19.000,207.000 L19.000,205.000 C19.000,204.448 19.448,204.000 20.000,204.000 L26.000,204.000 C26.552,204.000 27.000,204.448 27.000,205.000 L27.000,207.000 C27.000,207.552 26.552,208.000 26.000,208.000 ZM26.000,205.000 L20.000,205.000 L20.000,207.000 L26.000,207.000 L26.000,205.000 ZM16.446,206.317 L15.919,206.317 C15.845,206.962 15.596,207.555 15.221,208.047 L15.655,208.480 C15.814,208.639 15.814,208.897 15.655,209.057 C15.495,209.216 15.236,209.216 15.076,209.057 L14.655,208.637 C14.138,209.065 13.497,209.350 12.796,209.430 L12.796,209.966 C12.796,210.191 12.613,210.374 12.387,210.374 C12.161,210.374 11.978,210.191 11.978,209.966 L11.978,209.430 C11.265,209.348 10.615,209.055 10.093,208.616 L9.651,209.057 C9.492,209.216 9.233,209.216 9.073,209.057 C8.913,208.897 8.913,208.639 9.073,208.480 L9.533,208.021 C9.170,207.535 8.929,206.954 8.855,206.322 L8.328,206.322 C8.102,206.322 7.919,206.140 7.919,205.914 C7.919,205.689 8.102,205.506 8.328,205.506 L8.853,205.506 C8.929,204.846 9.187,204.239 9.576,203.739 L9.185,203.349 C9.025,203.190 9.025,202.931 9.185,202.772 C9.345,202.613 9.604,202.613 9.763,202.772 L10.149,203.156 C10.660,202.742 11.289,202.467 11.977,202.388 L11.977,201.863 C11.977,201.638 12.160,201.455 12.387,201.455 C12.613,201.455 12.796,201.638 12.796,201.863 L12.796,202.388 C13.511,202.470 14.163,202.765 14.686,203.207 L15.122,202.772 C15.282,202.613 15.541,202.613 15.700,202.772 C15.860,202.932 15.860,203.190 15.700,203.349 L15.245,203.803 C15.606,204.289 15.846,204.870 15.919,205.501 L16.446,205.501 C16.672,205.501 16.855,205.684 16.855,205.909 C16.855,206.134 16.672,206.317 16.446,206.317 ZM12.387,203.180 C10.877,203.180 9.649,204.404 9.649,205.909 C9.649,207.414 10.877,208.638 12.387,208.638 C13.896,208.638 15.124,207.414 15.124,205.909 C15.124,204.404 13.896,203.180 12.387,203.180 ZM12.387,207.635 C11.432,207.635 10.655,206.861 10.655,205.909 C10.655,204.957 11.432,204.183 12.387,204.183 C13.342,204.183 14.118,204.957 14.118,205.909 C14.118,206.861 13.342,207.635 12.387,207.635 ZM12.387,204.998 C11.883,204.998 11.473,205.407 11.473,205.909 C11.473,206.411 11.883,206.819 12.387,206.819 C12.890,206.819 13.300,206.411 13.300,205.909 C13.300,205.407 12.890,204.998 12.387,204.998 Z" class="cls-2"/>
    <path d="M15.000,161.000 L15.000,159.000 L15.000,158.000 L15.000,156.000 L15.000,155.000 L11.000,155.000 L11.000,156.000 L11.000,158.000 L11.000,159.000 L11.000,161.000 C9.508,161.687 9.000,162.288 9.000,164.000 L9.000,178.000 C9.000,178.701 9.321,179.000 10.000,179.000 L16.000,179.000 C16.679,178.981 17.000,178.624 17.000,178.000 L17.000,164.000 C17.000,162.288 16.492,161.687 15.000,161.000 ZM14.000,156.000 L14.000,158.000 L12.000,158.000 L12.000,156.000 L14.000,156.000 ZM16.000,178.000 L10.000,178.000 L10.000,164.000 C10.000,162.209 12.000,162.000 12.000,162.000 L12.000,159.000 L14.000,159.000 L14.000,162.000 C14.000,162.000 16.000,162.690 16.000,164.000 L16.000,178.000 ZM25.000,161.000 L25.000,159.000 L25.000,158.000 L25.000,156.000 L25.000,155.000 L21.000,155.000 L21.000,156.000 L21.000,158.000 L21.000,159.000 L21.000,161.000 C19.889,161.086 18.861,162.413 19.000,164.000 L19.000,178.000 C19.000,178.809 19.354,179.000 20.000,179.000 L26.000,179.000 C26.727,178.965 27.035,178.531 27.000,178.000 L27.000,164.000 C27.068,162.253 25.656,161.117 25.000,161.000 ZM24.000,156.000 L24.000,158.000 L22.000,158.000 L22.000,156.000 L24.000,156.000 ZM20.000,178.000 L20.000,164.000 C20.056,162.134 22.000,162.000 22.000,162.000 L22.000,159.000 L24.000,159.000 L24.000,162.000 C24.000,162.000 26.000,162.506 26.000,164.000 L26.000,178.000 L20.000,178.000 ZM22.000,166.000 C21.411,166.000 20.965,166.389 21.000,167.000 L21.000,173.000 C21.000,173.713 21.317,173.966 22.000,174.000 L24.000,174.000 C24.462,174.000 25.035,173.521 25.000,173.000 L25.000,167.000 C25.000,166.483 24.798,166.000 24.000,166.000 L22.000,166.000 ZM24.000,172.000 L22.000,172.000 L22.000,168.000 L24.000,168.000 L24.000,172.000 Z" class="cls-2"/>
    <path d="M35.000,139.000 L35.000,124.000 L36.000,124.000 L36.000,139.000 L35.000,139.000 ZM23.000,121.000 L13.000,121.000 L12.000,123.000 L0.000,123.000 L0.000,122.000 L6.000,120.000 L30.684,120.000 L36.000,122.000 L36.000,123.000 L24.000,123.000 L23.000,121.000 ZM1.000,139.000 L0.000,139.000 L0.000,124.000 L1.000,124.000 L1.000,139.000 ZM7.000,135.000 L6.000,135.000 L6.000,124.000 L7.000,124.000 L7.000,135.000 ZM13.000,134.000 L12.000,134.000 L11.000,132.000 L13.000,132.000 L13.000,134.000 ZM12.000,139.000 L11.000,139.000 L11.000,133.000 L12.000,135.000 L12.000,139.000 ZM14.000,134.000 L14.000,132.000 L14.000,131.000 L15.000,126.000 C14.960,125.243 15.336,124.966 16.000,125.000 L20.000,125.000 C20.638,125.000 21.036,125.393 21.000,126.000 L22.000,131.000 L22.000,132.000 L22.000,134.000 L22.000,135.000 L23.000,142.000 L22.000,142.000 L21.000,135.000 L21.000,134.000 L15.000,134.000 L15.000,135.000 L13.960,141.905 L13.000,142.000 L14.000,135.000 L14.000,134.000 ZM21.000,132.000 L20.000,126.000 L15.954,125.937 L15.000,132.000 L21.000,132.000 ZM20.000,128.000 L16.000,128.000 L16.000,127.000 L20.000,127.000 L20.000,128.000 ZM12.000,128.000 L13.000,123.000 L14.000,122.000 L22.000,122.000 L23.000,123.000 L24.000,128.000 L22.000,128.000 L22.000,125.000 C21.936,124.524 21.547,124.000 21.000,124.000 L15.000,124.000 C14.213,124.034 14.064,124.492 14.000,125.000 L14.000,128.000 L12.000,128.000 ZM23.000,132.000 L25.000,132.000 L24.000,134.000 L23.000,134.000 L23.000,132.000 ZM25.000,139.000 L24.000,139.000 L24.000,135.000 L25.000,133.000 L25.000,139.000 ZM31.000,135.000 L30.000,135.000 L30.000,124.000 L31.000,124.000 L31.000,135.000 Z" class="cls-2"/>
    <path d="M29.000,77.000 L8.000,77.000 C7.534,76.967 7.033,77.430 7.000,78.000 L7.000,80.000 C6.967,80.622 7.390,80.924 8.000,81.000 L13.000,81.000 L3.000,81.000 C2.567,81.000 2.023,81.358 2.000,82.000 L2.000,84.000 C1.990,84.360 2.200,84.968 3.000,85.000 L13.000,85.000 C13.025,86.934 15.055,87.027 16.000,87.000 C16.295,86.992 18.708,87.002 19.000,87.000 C20.922,86.985 21.999,86.036 22.000,84.000 C22.000,83.974 22.000,81.000 22.000,81.000 L25.000,81.000 L25.000,98.000 L22.000,98.000 L22.000,97.000 C22.000,97.000 21.826,96.106 22.000,96.000 C23.014,95.982 24.000,94.415 24.000,93.000 L24.000,91.000 C23.935,90.347 23.616,90.000 23.000,90.000 C10.013,90.000 12.787,90.000 13.000,90.000 C11.687,90.000 10.332,90.983 10.332,92.156 C10.332,93.329 11.400,94.283 12.713,94.283 C12.808,94.283 12.900,94.282 12.990,94.281 C13.319,95.588 15.000,96.000 15.000,96.000 L15.000,97.000 L15.000,98.000 L11.000,98.000 C9.338,98.000 7.769,98.988 7.000,100.000 C5.964,101.362 6.031,102.867 6.000,103.000 C5.978,103.825 6.474,103.961 7.000,104.000 L29.000,104.000 C29.671,103.936 29.978,103.754 30.000,103.000 L30.019,98.210 L30.000,78.000 C30.031,77.183 29.722,77.033 29.000,77.000 ZM12.953,93.048 C12.953,94.120 11.307,92.779 11.307,92.156 C11.307,91.533 11.938,91.027 12.713,91.027 C12.757,91.027 12.957,91.000 13.000,91.000 C12.998,91.002 12.953,92.289 12.953,93.048 ZM13.000,84.000 L3.000,84.000 L3.000,82.000 L13.000,82.000 L13.000,84.000 ZM16.000,86.000 C14.946,85.963 14.034,85.508 14.000,84.000 C13.966,82.492 14.000,82.000 14.000,82.000 L14.000,81.000 L18.000,81.000 L18.000,80.000 L8.000,80.000 L8.000,78.000 L29.044,77.998 L29.000,80.000 L22.000,80.000 C20.900,80.007 21.000,81.000 21.000,81.000 C21.000,81.000 20.996,83.976 21.000,84.000 C20.993,85.255 20.412,86.006 19.000,86.000 C17.619,85.994 15.252,85.995 16.000,86.000 ZM26.000,81.000 L29.000,81.000 L29.000,98.000 L26.000,98.000 L26.000,81.000 L26.000,81.000 ZM14.000,93.000 L14.000,91.000 C14.313,90.999 23.000,91.000 23.000,91.000 L23.000,93.000 C23.000,94.775 20.950,95.809 19.103,95.977 C18.764,96.007 18.396,96.003 18.000,96.000 C15.512,96.000 14.000,94.975 14.000,93.000 ZM16.000,97.000 L21.000,97.000 C21.001,97.125 20.999,97.880 21.000,98.000 L16.000,98.000 L16.000,97.000 ZM29.000,103.000 L7.000,103.000 C7.202,102.393 7.449,101.790 8.000,101.000 C8.646,100.074 9.674,99.000 11.000,99.000 L26.000,99.000 L29.000,99.000 L29.000,103.000 Z" class="cls-2"/>
    <path d="M18.520,44.707 C15.943,44.707 13.506,45.525 11.474,47.073 C11.267,47.231 11.229,47.523 11.389,47.726 C11.482,47.844 11.622,47.906 11.763,47.906 C11.864,47.906 11.966,47.875 12.052,47.809 C13.918,46.389 16.154,45.638 18.520,45.638 C20.882,45.638 23.115,46.386 24.979,47.803 C25.186,47.960 25.482,47.922 25.642,47.719 C25.802,47.515 25.764,47.223 25.557,47.066 C23.527,45.523 21.093,44.707 18.520,44.707 ZM31.838,43.463 C27.995,40.543 23.391,39.000 18.524,39.000 C13.649,39.000 9.040,40.548 5.194,43.476 C4.988,43.634 4.950,43.926 5.109,44.129 C5.203,44.247 5.343,44.309 5.483,44.309 C5.584,44.309 5.686,44.277 5.772,44.212 C9.451,41.411 13.861,39.931 18.524,39.931 C23.180,39.931 27.584,41.407 31.259,44.200 C31.466,44.357 31.763,44.320 31.923,44.116 C32.083,43.913 32.045,43.620 31.838,43.463 ZM18.518,50.426 C17.250,50.426 16.052,50.829 15.052,51.590 C14.845,51.747 14.807,52.039 14.967,52.242 C15.060,52.361 15.200,52.423 15.341,52.423 C15.442,52.423 15.544,52.391 15.630,52.326 C16.463,51.691 17.461,51.357 18.517,51.357 C19.572,51.357 20.569,51.691 21.401,52.324 C21.608,52.481 21.906,52.444 22.065,52.240 C22.224,52.036 22.186,51.744 21.980,51.587 C20.980,50.827 19.783,50.426 18.518,50.426 ZM18.516,55.559 C17.831,55.559 17.276,56.106 17.276,56.780 C17.276,57.454 17.831,58.000 18.516,58.000 C19.201,58.000 19.756,57.454 19.756,56.780 C19.756,56.106 19.201,55.559 18.516,55.559 Z" class="cls-2"/>
    <path d="M34.000,18.000 C34.000,18.544 33.569,18.969 33.000,19.000 L21.000,19.000 C21.048,20.087 21.896,21.522 23.000,22.000 C23.000,22.000 22.603,22.968 21.804,22.999 L20.000,23.000 L16.923,22.999 L14.871,22.999 C13.672,22.999 14.000,22.000 14.000,22.000 C15.104,21.522 15.951,20.087 16.000,19.000 L4.000,19.000 C3.391,18.989 2.989,18.593 3.000,18.000 L3.003,0.939 C3.003,0.421 3.415,0.001 3.921,0.001 L33.105,0.001 C33.611,0.001 34.022,0.421 34.021,0.939 L34.000,18.000 ZM18.500,20.000 C18.776,20.000 19.000,19.776 19.000,19.500 C19.000,19.224 18.776,19.000 18.500,19.000 C18.224,19.000 18.000,19.224 18.000,19.500 C18.000,19.776 18.224,20.000 18.500,20.000 ZM33.000,1.000 L4.000,1.000 L4.000,18.000 L33.000,18.000 L33.000,1.000 Z" class="cls-2"/>
  </g>
</svg>
