<svg xmlns="http://www.w3.org/2000/svg" xmlns:xlink="http://www.w3.org/1999/xlink" preserveAspectRatio="xMidYMid" width="34" height="681" viewBox="0 0 34 681">
  <defs>
    <style>
      .cls-1 {
        fill: #efc581;
        fill-rule: evenodd;
      }
    </style>
  </defs>
  <g>
    <path d="M31.035,17.620 L29.881,16.790 C29.804,16.736 29.712,16.705 29.617,16.702 L27.451,16.650 C27.261,16.645 27.093,16.528 27.026,16.352 L26.227,14.257 C26.195,14.174 26.138,14.100 26.065,14.048 L24.424,12.869 C24.347,12.813 24.256,12.782 24.160,12.780 L21.995,12.729 C21.807,12.724 21.638,12.608 21.571,12.435 L20.742,10.312 C20.710,10.230 20.655,10.158 20.582,10.107 L18.176,8.376 C18.497,5.617 17.248,2.787 14.716,1.189 C11.174,-1.048 6.466,-0.028 4.200,3.465 C1.935,6.959 2.977,11.604 6.518,13.838 C6.846,14.045 7.658,14.847 8.000,15.000 L8.000,16.000 L6.000,16.000 C3.941,16.091 3.000,17.667 3.000,19.000 L3.000,32.000 C3.001,32.904 3.774,33.988 4.691,33.988 L13.349,33.988 C14.267,33.988 15.000,32.905 15.000,32.000 L15.000,19.000 C15.000,17.667 14.013,16.045 12.000,16.000 L10.000,16.000 L10.000,15.000 C11.425,15.016 13.343,14.661 14.567,13.927 L28.467,21.572 C29.535,22.160 30.884,21.826 31.543,20.810 L31.620,20.693 C32.279,19.677 32.022,18.330 31.035,17.620 ZM11.202,18.685 C11.202,19.878 10.225,20.845 9.016,20.845 C7.807,20.845 6.838,19.878 6.838,18.685 C6.838,18.065 7.083,17.505 7.539,17.111 L7.539,17.732 C7.539,18.548 8.173,19.000 9.000,19.000 C9.828,19.000 10.504,18.547 10.504,17.732 L10.504,17.111 C10.959,17.505 11.202,18.065 11.202,18.685 ZM11.000,8.000 C10.749,8.387 10.399,8.778 10.000,9.000 L10.000,7.000 C10.000,6.184 9.532,5.912 9.021,5.912 C8.466,5.912 8.000,6.185 8.000,7.000 L8.000,9.000 C7.943,8.984 7.482,8.945 7.458,8.930 C6.102,8.073 5.702,6.296 6.570,4.959 C7.437,3.620 9.233,3.230 10.590,4.086 C11.946,4.942 11.867,6.663 11.000,8.000 Z" class="cls-1"/>
    <path d="M29.000,80.000 L29.000,77.000 L5.000,77.000 L5.000,80.000 L-0.000,80.000 L-0.000,64.000 L1.000,62.000 L4.000,62.000 L5.000,64.000 L5.000,71.000 L29.000,71.000 L29.000,68.000 L30.000,66.000 L33.000,66.000 L34.000,68.000 L34.000,71.000 L34.000,77.000 L34.000,80.000 L29.000,80.000 ZM12.000,67.000 L13.665,64.999 L25.000,66.000 L27.000,68.000 L27.000,70.000 L12.004,70.011 L12.000,67.000 ZM8.494,70.012 C7.111,70.012 5.989,68.891 5.989,67.509 C5.989,66.126 7.111,65.005 8.494,65.005 C9.877,65.005 10.999,66.126 10.999,67.509 C10.999,68.891 9.877,70.012 8.494,70.012 Z" class="cls-1"/>
    <path d="M33.813,128.001 L31.000,121.000 L31.000,121.000 L31.000,115.000 C31.000,113.700 29.299,112.000 28.000,112.000 L6.000,112.000 C4.701,112.000 3.000,113.700 3.000,115.000 L3.000,121.000 L3.000,121.000 L0.187,128.001 L33.813,128.001 ZM9.000,118.000 C9.000,117.238 10.238,117.000 11.000,117.000 L23.000,117.000 C23.899,117.000 25.000,117.101 25.000,118.000 L25.000,120.000 C25.000,120.899 23.899,121.000 23.000,121.000 L11.000,121.000 C10.101,121.000 9.000,120.899 9.000,120.000 L9.000,118.000 ZM5.000,121.000 L7.852,121.131 C7.914,122.614 8.974,123.000 10.000,123.000 L24.000,123.000 C25.026,123.000 26.028,122.659 26.000,121.000 L29.000,121.000 L31.000,126.000 L3.000,126.000 L5.000,121.000 ZM34.000,129.114 L34.000,136.000 C34.000,137.122 33.121,138.000 32.000,138.000 L2.000,138.000 C0.879,138.000 -0.000,137.122 -0.000,136.000 L-0.000,129.000 L34.000,129.000 L34.000,129.114 Z" class="cls-1"/>
    <path d="M18.752,186.748 C18.464,187.572 18.240,188.994 19.893,189.411 C22.264,190.009 25.463,191.172 25.463,194.121 C25.463,196.625 7.402,196.625 7.402,194.121 C7.402,191.172 10.601,190.009 12.972,189.411 C14.644,188.990 14.396,187.539 14.104,186.721 C8.366,185.600 4.023,180.536 4.023,174.476 C4.023,167.597 9.620,162.000 16.500,162.000 C23.380,162.000 28.977,167.597 28.977,174.476 C28.977,180.587 24.561,185.685 18.752,186.748 ZM17.605,193.407 C17.605,193.687 17.832,193.915 18.112,193.915 C18.393,193.915 18.620,193.687 18.620,193.407 L18.620,192.668 C18.620,192.388 18.393,192.161 18.112,192.161 C17.832,192.161 17.605,192.388 17.605,192.668 L17.605,193.407 ZM15.992,193.407 C15.992,193.687 16.220,193.915 16.500,193.915 C16.780,193.915 17.007,193.687 17.007,193.407 L17.007,192.668 C17.007,192.388 16.780,192.161 16.500,192.161 C16.220,192.161 15.992,192.388 15.992,192.668 L15.992,193.407 ZM14.380,193.407 C14.380,193.687 14.607,193.915 14.887,193.915 C15.168,193.915 15.395,193.687 15.395,193.407 L15.395,192.668 C15.395,192.388 15.168,192.161 14.887,192.161 C14.607,192.161 14.380,192.388 14.380,192.668 L14.380,193.407 ZM16.500,163.612 C10.509,163.612 5.635,168.486 5.635,174.476 C5.635,180.466 10.509,185.340 16.500,185.340 C22.491,185.340 27.365,180.466 27.365,174.476 C27.365,168.486 22.491,163.612 16.500,163.612 ZM22.991,181.010 C20.931,182.109 18.558,181.682 17.690,180.057 C17.206,179.150 16.597,177.825 16.511,176.640 C17.328,176.634 17.989,175.970 17.989,175.151 C17.989,174.837 17.892,174.546 17.726,174.306 C19.819,173.275 23.814,173.575 25.149,176.075 C26.017,177.701 25.050,179.910 22.991,181.010 ZM20.372,172.358 C19.702,173.006 18.730,173.846 17.722,174.301 C17.453,173.915 17.006,173.662 16.500,173.662 C15.995,173.662 15.549,173.914 15.280,174.299 C15.155,174.216 15.034,174.116 14.918,173.996 C13.295,172.317 12.421,168.285 14.496,166.279 C15.822,164.999 18.211,165.321 19.834,167.000 C21.456,168.679 21.697,171.078 20.372,172.358 ZM15.011,175.151 C15.011,175.970 15.671,176.634 16.488,176.640 C16.402,177.825 15.794,179.150 15.310,180.057 C14.442,181.682 12.069,182.109 10.009,181.010 C7.949,179.910 6.983,177.701 7.851,176.075 C9.186,173.575 13.181,173.275 15.274,174.307 C15.108,174.547 15.011,174.837 15.011,175.151 Z" class="cls-1"/>
    <path d="M31.450,245.459 C29.761,247.145 27.517,248.076 25.132,248.076 C22.744,248.076 20.503,247.148 18.814,245.459 C17.129,243.770 16.198,241.524 16.198,239.138 C16.198,237.286 16.758,235.521 17.797,234.034 C18.096,233.604 18.435,233.200 18.814,232.821 C20.503,231.135 22.747,230.204 25.132,230.204 C26.511,230.204 27.842,230.514 29.047,231.103 C29.924,231.532 30.736,232.110 31.446,232.821 C33.132,234.510 34.062,236.756 34.062,239.142 C34.062,241.531 33.132,243.773 31.450,245.459 ZM27.943,233.998 C27.106,233.539 26.146,233.276 25.129,233.276 C24.079,233.276 23.094,233.554 22.242,234.038 C20.467,235.048 19.265,236.958 19.265,239.145 C19.265,240.207 19.550,241.203 20.045,242.062 L28.048,234.056 C28.012,234.034 27.979,234.016 27.943,233.998 ZM30.216,236.221 L22.213,244.228 C23.072,244.726 24.068,245.008 25.129,245.008 C28.361,245.008 30.995,242.376 30.995,239.138 C30.995,238.077 30.710,237.081 30.216,236.221 ZM18.000,232.000 C17.397,232.599 17.176,232.969 17.000,234.000 L5.000,234.000 L5.000,227.000 L27.000,227.000 C27.797,227.000 29.000,227.202 29.000,228.000 L29.047,229.919 C27.828,229.399 26.500,229.125 25.132,229.125 C22.455,229.125 19.891,230.109 18.000,232.000 ZM6.182,223.623 C5.583,223.912 4.962,224.161 4.378,224.482 C4.237,224.562 2.895,225.410 3.021,225.580 C2.960,225.497 2.906,225.407 2.862,225.316 C2.401,224.345 2.960,223.013 3.591,222.252 C4.309,221.396 5.305,220.826 6.294,220.302 C6.864,219.999 7.438,219.707 7.982,219.360 C8.105,219.281 9.354,218.440 9.249,218.299 C9.458,218.588 9.566,219.043 9.577,219.396 C9.613,220.396 9.101,221.356 8.430,222.068 C7.802,222.735 7.008,223.226 6.182,223.623 ZM4.000,234.000 L1.000,234.000 C0.203,234.000 -0.002,232.999 0.000,232.000 L0.000,229.000 C0.000,228.202 0.203,227.000 1.000,227.000 L4.000,227.000 L4.000,234.000 Z" class="cls-1"/>
    <path d="M34.000,296.238 C34.000,297.759 32.770,298.997 31.260,298.997 L2.738,298.997 C1.229,298.997 -0.000,297.759 -0.000,296.238 L0.000,277.000 C0.000,275.478 1.491,274.000 3.000,274.000 L31.000,274.000 C32.510,274.000 34.000,275.478 34.000,277.000 L34.000,296.238 ZM28.745,297.943 C29.139,297.943 29.458,297.622 29.458,297.225 C29.458,296.828 29.139,296.506 28.745,296.506 C28.352,296.506 28.032,296.828 28.032,297.225 C28.032,297.622 28.352,297.943 28.745,297.943 ZM24.180,297.943 C24.574,297.943 24.894,297.622 24.894,297.225 C24.894,296.828 24.574,296.506 24.180,296.506 C23.787,296.506 23.467,296.828 23.467,297.225 C23.467,297.622 23.787,297.943 24.180,297.943 ZM31.000,278.000 L3.000,278.000 L3.000,295.000 L31.000,295.000 L31.000,278.000 ZM8.985,280.998 L15.003,280.998 C15.549,280.998 15.991,281.423 15.991,281.948 C15.991,282.650 15.545,283.000 15.000,283.000 L13.000,283.000 L13.000,290.000 C13.000,290.627 12.623,291.002 11.971,291.002 C11.320,291.002 11.000,290.627 11.000,290.000 L11.000,283.000 L8.985,282.898 C8.441,282.898 7.999,282.472 7.999,281.948 C7.999,281.423 8.441,280.998 8.985,280.998 ZM18.123,280.998 C18.618,280.998 19.056,281.335 19.200,281.829 L20.998,287.962 C21.185,287.034 22.342,283.389 22.861,281.775 C23.010,281.311 23.426,280.998 23.895,280.998 L23.921,280.998 C24.267,280.998 24.592,281.172 24.793,281.465 C24.996,281.758 25.049,282.134 24.939,282.477 L22.433,290.239 C22.286,290.695 21.876,291.002 21.414,291.002 L20.438,291.002 C19.971,291.002 19.556,290.687 19.414,290.223 L17.051,282.531 C16.941,282.174 17.001,281.783 17.214,281.480 C17.426,281.177 17.764,280.998 18.123,280.998 Z" class="cls-1"/>
    <path d="M33.000,346.000 C32.931,346.036 33.000,346.568 33.000,347.000 L33.000,354.000 C33.000,355.467 31.467,357.000 30.000,357.000 L4.000,357.000 C2.533,357.000 1.000,355.467 1.000,354.000 L1.000,347.000 C1.000,346.736 1.099,346.060 1.000,346.000 C0.509,345.701 -0.000,345.442 -0.000,344.828 L-0.000,331.114 C-0.000,330.179 1.065,329.000 2.000,329.000 L9.000,329.000 L9.000,327.000 C9.000,325.941 9.941,325.000 11.000,325.000 L23.000,325.000 C24.059,325.000 25.000,325.941 25.000,327.000 C25.000,327.000 25.000,328.491 25.000,329.000 L32.000,329.000 C32.935,329.000 34.000,330.179 34.000,331.114 L34.000,344.000 C34.000,344.655 33.546,345.717 33.000,346.000 ZM23.000,327.000 L11.000,327.000 L11.000,329.000 L23.000,329.000 L23.000,327.000 ZM31.000,348.000 C31.000,348.000 30.768,347.000 30.000,347.000 C29.552,347.000 29.000,346.000 29.000,346.000 L29.000,345.000 C29.000,343.411 28.781,342.000 26.000,342.000 L23.000,342.000 C20.261,342.000 20.000,343.411 20.000,345.000 L20.000,346.000 C20.000,346.000 19.632,347.000 19.000,347.000 C17.646,347.000 16.504,347.000 15.000,347.000 C14.436,347.000 14.000,346.000 14.000,346.000 L14.000,345.000 C14.000,343.411 13.550,342.000 11.000,342.000 L8.000,342.000 C5.317,342.000 5.000,343.411 5.000,345.000 L5.000,346.000 C5.000,346.000 4.815,347.000 4.000,347.000 C2.983,347.000 3.000,348.000 3.000,348.000 L3.000,354.000 C3.000,354.408 3.592,355.000 4.000,355.000 L30.000,355.000 C30.408,355.000 31.000,354.408 31.000,354.000 L31.000,348.000 ZM26.000,349.000 L23.000,349.000 C22.496,349.000 22.000,348.504 22.000,348.000 L22.000,345.000 C22.000,344.496 22.496,344.000 23.000,344.000 L26.000,344.000 C26.504,344.000 27.000,344.496 27.000,345.000 L27.000,348.000 C27.000,348.504 26.504,349.000 26.000,349.000 ZM10.769,348.954 L8.000,349.000 C7.496,349.000 7.000,348.504 7.000,348.000 L7.000,345.000 C7.000,344.496 7.496,344.000 8.000,344.000 L11.000,344.000 C11.504,344.000 12.000,344.496 12.000,345.000 L12.000,348.000 C12.000,348.504 11.274,348.954 10.769,348.954 Z" class="cls-1"/>
    <path d="M21.593,404.681 C21.593,407.219 19.540,409.272 17.004,409.272 C14.470,409.272 12.416,407.219 12.416,404.681 C12.416,402.144 14.470,400.091 17.004,400.091 C19.541,400.091 21.593,402.144 21.593,404.681 ZM6.445,395.845 L9.963,398.795 C13.471,394.603 20.549,394.603 24.053,398.800 L27.575,395.859 C24.945,392.711 21.093,390.909 17.004,390.909 C12.918,390.909 9.069,392.707 6.445,395.845 ZM-0.000,389.269 L3.401,392.353 C6.873,388.515 11.831,386.319 17.004,386.319 C22.175,386.319 27.131,388.515 30.604,392.344 L34.000,389.259 C29.658,384.472 23.466,381.728 17.004,381.728 C10.539,381.728 4.342,384.481 -0.000,389.269 Z" class="cls-1"/>
    <path d="M27.885,460.964 C25.053,460.981 18.319,461.044 16.000,461.000 C12.049,460.926 11.000,459.733 11.000,456.000 C11.000,453.222 11.000,444.000 11.000,444.000 L20.000,444.000 L20.000,447.000 L12.000,447.000 C12.000,452.321 12.000,451.899 12.000,455.000 C12.000,457.991 13.790,459.000 15.000,459.000 C16.095,459.000 20.338,459.000 21.000,459.000 C21.070,459.000 21.000,459.000 21.000,459.000 C21.662,459.000 24.905,459.000 26.000,459.000 C27.210,459.000 29.000,457.991 29.000,455.000 C29.000,451.899 29.000,452.321 29.000,447.000 L22.000,447.000 L22.000,444.000 C25.358,444.000 28.246,443.966 29.000,444.000 C30.332,443.160 29.621,437.523 29.000,436.000 C28.379,434.478 25.079,434.008 24.000,434.000 C22.920,433.992 15.077,433.958 9.037,433.998 C6.692,434.014 5.038,435.067 5.000,437.000 L8.000,437.000 L8.000,438.000 L5.000,438.000 C4.958,438.212 5.023,438.785 5.000,439.000 L8.000,439.000 L8.000,440.000 L5.000,440.000 C5.000,440.227 4.981,440.775 5.000,441.000 L8.000,441.000 L8.000,442.000 L5.000,442.000 C4.942,443.059 5.241,443.967 5.991,444.038 C6.000,445.229 6.000,455.971 6.000,458.000 C6.000,460.029 -0.914,463.933 2.000,465.000 C3.619,465.000 31.976,465.000 33.000,465.000 C34.024,465.000 30.744,460.948 27.885,460.964 ZM15.884,458.012 C15.604,457.874 15.213,457.638 14.831,457.232 C14.639,457.030 14.450,456.786 14.303,456.489 C14.220,456.344 14.162,456.183 14.100,456.017 C14.059,455.849 13.998,455.619 13.990,455.478 C13.940,455.105 13.948,454.813 13.940,454.467 C13.938,454.131 13.923,453.790 13.929,453.450 C13.930,452.087 14.024,450.724 14.146,449.702 C14.263,448.680 14.426,447.998 14.426,447.998 C14.426,447.998 14.589,448.679 14.706,449.702 C14.829,450.724 14.922,452.087 14.923,453.450 C14.929,453.791 14.915,454.131 14.912,454.467 C14.916,454.790 14.884,455.160 14.890,455.424 C14.884,455.605 14.915,455.679 14.925,455.814 C14.957,455.942 14.969,456.074 15.015,456.196 C15.087,456.444 15.202,456.670 15.311,456.881 C15.548,457.295 15.812,457.625 16.010,457.848 C16.208,458.072 16.338,458.194 16.338,458.194 C16.338,458.194 16.165,458.150 15.884,458.012 Z" class="cls-1"/>
    <path d="M33.000,503.000 L30.000,503.000 L18.000,503.000 L15.000,503.000 C14.537,502.981 14.012,502.641 14.000,502.000 C14.116,501.624 14.169,501.000 15.000,501.000 L18.000,501.000 L30.000,501.000 L33.000,501.000 C33.492,501.000 34.063,501.284 34.000,502.000 C33.912,503.009 32.596,503.000 33.000,503.000 ZM14.000,502.000 C13.972,502.090 13.998,501.900 14.000,502.000 ZM29.731,488.865 L29.698,488.957 L26.884,488.325 L26.896,488.241 L26.936,487.959 L27.215,486.002 L30.484,486.786 L29.829,488.595 L29.731,488.865 ZM29.000,493.000 C29.000,493.000 29.002,493.932 29.000,495.000 C29.117,495.599 29.724,496.197 30.000,497.000 C30.009,497.619 30.028,498.295 30.000,499.000 C29.986,499.204 30.042,499.795 30.000,500.000 L24.000,500.000 L24.000,499.000 L21.486,498.513 L21.583,498.044 C21.622,497.863 21.672,497.687 21.729,497.516 C22.256,495.861 23.638,494.756 24.459,493.993 C25.382,493.136 25.597,492.097 25.597,492.097 L26.000,489.000 L30.000,490.000 L29.000,493.000 ZM14.000,514.000 C13.583,513.929 13.483,513.960 13.000,514.000 C10.177,513.658 9.464,510.856 9.023,506.199 C8.583,510.856 8.642,512.655 6.000,514.000 C5.202,514.084 4.453,513.984 4.000,514.000 C0.758,513.166 -0.000,508.872 -0.000,501.000 L9.000,501.000 L13.000,501.000 C12.882,501.195 13.037,501.764 13.000,502.000 L10.000,502.000 C10.014,506.270 9.857,508.942 10.620,510.896 C10.678,511.055 10.741,511.202 10.806,511.336 C11.425,512.670 11.962,513.000 13.000,513.000 C13.253,513.000 13.765,512.960 14.024,513.058 C14.024,513.058 14.321,513.931 14.000,514.000 ZM8.000,502.000 L1.000,502.000 C1.014,506.270 1.321,508.942 2.084,510.896 C2.142,511.055 2.205,511.202 2.270,511.336 C2.930,512.664 4.243,513.074 5.064,513.107 C6.100,513.147 6.620,512.672 7.239,511.341 C7.306,511.204 7.370,511.054 7.429,510.891 C8.190,508.936 7.986,506.267 8.000,502.000 ZM5.089,512.066 C4.095,512.118 2.392,510.854 2.000,507.000 L7.000,507.000 C7.094,509.879 6.003,512.017 5.089,512.066 ZM13.000,512.000 C13.212,512.010 12.794,512.080 13.000,512.000 ZM11.000,507.000 L13.000,507.000 L13.000,512.000 C12.329,511.970 11.007,509.815 11.000,507.000 ZM2.391,518.974 L4.000,519.000 L4.000,515.000 C4.222,515.047 4.769,515.000 5.000,515.000 C5.231,515.000 5.777,515.047 6.000,515.000 L6.000,519.000 L7.013,518.974 C7.245,518.974 7.433,519.118 7.433,519.294 L7.433,519.677 C7.433,519.854 7.245,519.997 7.013,519.997 L2.391,519.997 C2.159,519.997 1.971,519.854 1.971,519.677 L1.971,519.294 C1.971,519.118 2.159,518.974 2.391,518.974 ZM10.928,518.974 L13.000,519.000 L13.000,515.018 C12.942,515.012 12.882,515.000 13.000,515.000 C13.231,515.000 13.777,515.047 14.000,515.000 L13.973,518.974 L15.000,519.000 L15.006,519.998 L10.927,519.998 C10.694,519.998 10.506,519.854 10.508,519.677 L10.508,519.294 C10.508,519.118 10.696,518.974 10.928,518.974 ZM14.824,512.640 L14.710,511.836 L14.000,507.000 L14.000,504.000 L34.000,504.000 L32.197,511.602 C32.142,511.590 32.086,511.583 32.026,511.583 C31.987,511.583 31.946,511.586 31.904,511.592 C31.508,511.656 31.123,511.687 30.749,511.687 C29.521,511.687 28.406,511.358 27.425,510.776 C27.338,510.725 27.252,510.671 27.168,510.616 C27.086,510.563 27.006,510.506 26.926,510.450 C25.931,509.739 25.090,508.760 24.435,507.595 C24.908,506.707 24.502,505.302 23.214,505.302 C21.357,505.302 21.335,508.220 23.140,508.301 C23.762,509.434 24.540,510.400 25.442,511.169 C25.528,511.242 25.614,511.314 25.703,511.384 C25.794,511.455 25.887,511.525 25.980,511.593 C27.363,512.596 29.188,513.000 31.000,513.000 C31.378,513.000 31.972,513.081 31.972,513.081 L31.000,516.000 L16.000,516.000 L14.922,513.336 L14.824,512.640 ZM30.922,519.963 L16.000,520.000 L16.000,518.000 L31.000,518.000 L30.922,519.963 Z" class="cls-1"/>
    <path d="M30.000,540.000 L4.000,540.000 C2.508,540.000 1.000,541.507 1.000,543.000 L1.000,570.000 C1.000,571.428 1.598,571.900 3.000,572.000 L3.374,573.033 C3.374,573.567 3.806,574.000 4.340,574.000 L7.078,574.000 C7.612,574.000 8.045,573.567 8.045,573.033 L8.000,572.000 L26.000,572.000 L26.000,573.000 C26.000,573.534 26.098,574.000 26.632,574.000 L29.370,574.000 C29.904,574.000 30.000,572.534 30.000,572.000 L31.000,572.000 L31.000,572.000 C32.492,572.000 33.000,571.493 33.000,570.000 L33.000,543.000 C33.000,541.507 31.492,540.000 30.000,540.000 ZM31.000,567.000 C31.000,568.413 29.412,570.000 28.000,570.000 L6.000,570.000 C4.588,570.000 3.000,568.413 3.000,567.000 L3.000,545.000 C3.000,543.587 4.588,542.000 6.000,542.000 L28.000,542.000 C29.412,542.000 31.000,543.587 31.000,545.000 L31.000,567.000 ZM13.626,556.098 C13.626,557.324 12.629,558.321 11.403,558.321 C10.178,558.321 9.181,557.324 9.181,556.098 C9.181,554.871 10.178,553.874 11.403,553.874 C12.629,553.874 13.626,554.871 13.626,556.098 ZM28.000,545.000 L6.000,545.000 C5.654,545.000 6.000,544.653 6.000,545.000 L6.000,567.000 C6.000,567.347 5.654,567.000 6.000,567.000 L28.000,567.000 C28.346,567.000 28.000,567.347 28.000,567.000 L28.000,545.000 C28.000,544.653 28.346,545.000 28.000,545.000 ZM11.403,560.255 C9.112,560.255 7.248,558.390 7.248,556.098 C7.248,553.805 9.112,551.940 11.403,551.940 C13.695,551.940 15.559,553.805 15.559,556.098 C15.559,558.390 13.695,560.255 11.403,560.255 ZM19.064,560.271 L18.594,560.271 C18.061,560.271 17.628,559.838 17.628,559.304 C17.628,558.770 18.061,558.337 18.594,558.337 L19.064,558.337 C19.597,558.337 20.030,558.770 20.030,559.304 C20.030,559.838 19.597,560.271 19.064,560.271 ZM19.064,557.113 L18.594,557.113 C18.061,557.113 17.628,556.680 17.628,556.146 C17.628,555.612 18.061,555.179 18.594,555.179 L19.064,555.179 C19.597,555.179 20.030,555.612 20.030,556.146 C20.030,556.680 19.597,557.113 19.064,557.113 ZM19.064,553.954 L18.594,553.954 C18.061,553.954 17.628,553.522 17.628,552.988 C17.628,552.454 18.061,552.021 18.594,552.021 L19.064,552.021 C19.597,552.021 20.030,552.454 20.030,552.988 C20.030,553.522 19.597,553.954 19.064,553.954 ZM22.350,560.271 L21.880,560.271 C21.346,560.271 20.914,559.838 20.914,559.304 C20.914,558.770 21.346,558.337 21.880,558.337 L22.350,558.337 C22.883,558.337 23.316,558.770 23.316,559.304 C23.316,559.838 22.883,560.271 22.350,560.271 ZM22.350,557.113 L21.880,557.113 C21.346,557.113 20.914,556.680 20.914,556.146 C20.914,555.612 21.346,555.179 21.880,555.179 L22.350,555.179 C22.883,555.179 23.316,555.612 23.316,556.146 C23.316,556.680 22.883,557.113 22.350,557.113 ZM22.350,553.954 L21.880,553.954 C21.346,553.954 20.914,553.522 20.914,552.988 C20.914,552.454 21.346,552.021 21.880,552.021 L22.350,552.021 C22.883,552.021 23.316,552.454 23.316,552.988 C23.316,553.522 22.883,553.954 22.350,553.954 ZM25.635,560.271 L25.166,560.271 C24.632,560.271 24.200,559.838 24.200,559.304 C24.200,558.770 24.632,558.337 25.166,558.337 L25.635,558.337 C26.169,558.337 26.602,558.770 26.602,559.304 C26.602,559.838 26.169,560.271 25.635,560.271 ZM25.635,557.113 L25.166,557.113 C24.632,557.113 24.200,556.680 24.200,556.146 C24.200,555.612 24.632,555.179 25.166,555.179 L25.635,555.179 C26.169,555.179 26.602,555.612 26.602,556.146 C26.602,556.680 26.169,557.113 25.635,557.113 ZM25.635,553.954 L25.166,553.954 C24.632,553.954 24.200,553.522 24.200,552.988 C24.200,552.454 24.632,552.021 25.166,552.021 L25.635,552.021 C26.169,552.021 26.602,552.454 26.602,552.988 C26.602,553.522 26.169,553.954 25.635,553.954 Z" class="cls-1"/>
    <path d="M29.548,626.972 L29.548,606.668 C29.548,602.172 25.953,598.514 21.534,598.514 C17.297,598.514 13.826,601.881 13.548,606.122 C17.957,606.544 21.433,609.147 21.909,612.417 C22.339,613.270 22.584,614.190 22.584,615.154 C22.584,617.797 17.039,618.734 12.288,618.734 C7.539,618.734 1.992,617.796 1.992,615.154 C1.992,614.190 2.238,613.270 2.668,612.417 C3.146,609.133 6.650,606.522 11.084,606.114 C11.370,600.493 15.941,596.005 21.535,596.005 C27.111,596.005 31.670,600.460 31.984,606.054 L32.015,606.054 L32.015,626.972 L29.548,626.972 ZM3.301,614.361 C3.256,614.622 3.226,614.885 3.226,615.154 C3.226,616.277 6.869,617.481 12.288,617.481 C17.709,617.481 21.352,616.278 21.352,615.154 C21.352,614.885 21.322,614.622 21.276,614.361 C18.281,616.726 6.295,616.726 3.301,614.361 ZM5.662,622.235 C5.662,622.963 5.259,623.551 4.763,623.551 C4.264,623.551 3.863,622.963 3.863,622.235 C3.863,621.508 4.763,620.110 4.763,620.110 C4.763,620.110 5.662,621.508 5.662,622.235 ZM9.426,625.677 C9.426,626.404 9.023,626.993 8.526,626.993 C8.028,626.993 7.626,626.404 7.626,625.677 C7.626,624.951 8.526,623.551 8.526,623.551 C8.526,623.551 9.426,624.951 9.426,625.677 ZM13.189,622.235 C13.189,622.963 12.786,623.551 12.288,623.551 C11.791,623.551 11.389,622.963 11.389,622.235 C11.389,621.508 12.288,620.110 12.288,620.110 C12.288,620.110 13.189,621.508 13.189,622.235 ZM16.953,625.677 C16.953,626.404 16.551,626.993 16.053,626.993 C15.555,626.993 15.154,626.404 15.154,625.677 C15.154,624.951 16.053,623.551 16.053,623.551 C16.053,623.551 16.953,624.951 16.953,625.677 ZM20.716,622.235 C20.716,622.963 20.315,623.551 19.816,623.551 C19.318,623.551 18.916,622.963 18.916,622.235 C18.916,621.508 19.816,620.110 19.816,620.110 C19.816,620.110 20.716,621.508 20.716,622.235 Z" class="cls-1"/>
    <path d="M26.568,653.678 C26.125,653.512 19.548,651.077 14.020,650.279 C13.960,650.269 13.904,650.264 13.847,650.256 C13.539,650.197 13.180,650.157 12.784,650.131 C8.089,649.665 4.814,650.529 4.237,650.540 C0.901,650.540 1.634,661.125 4.203,661.208 C4.266,661.210 4.322,661.212 4.381,661.214 C4.482,661.218 4.763,661.229 5.173,661.245 C6.870,661.328 7.212,661.486 7.855,662.254 C8.605,663.151 9.948,665.024 9.948,667.516 C9.948,670.008 9.948,675.491 9.948,676.239 C9.948,676.684 10.220,676.931 10.738,677.061 C10.749,677.066 10.750,677.070 10.764,677.075 C11.978,677.545 11.440,681.009 11.440,681.009 L12.516,681.009 C12.516,681.009 12.089,677.411 13.342,677.149 C14.588,677.067 15.856,676.840 15.846,676.317 C15.830,675.620 15.695,670.784 15.846,667.544 C15.896,666.433 15.702,665.369 15.453,664.442 L15.993,664.442 L15.993,663.046 L15.024,663.046 C14.701,662.097 14.463,661.463 14.688,661.331 C14.705,661.328 14.727,661.323 14.738,661.319 C14.747,661.315 14.757,661.303 14.766,661.297 C17.961,660.647 25.766,658.534 26.525,658.327 L26.525,658.355 L32.001,660.255 L32.005,651.785 L26.568,653.678 Z" class="cls-1"/>
  </g>
</svg>
