<svg xmlns="http://www.w3.org/2000/svg" xmlns:xlink="http://www.w3.org/1999/xlink" preserveAspectRatio="xMidYMid" width="26.12" height="102.062" viewBox="0 0 26.12 102.062">
  <defs>
    <style>
      .cls-1 {
        fill: #3e312a;
        fill-rule: evenodd;
      }
    </style>
  </defs>
  <g>
    <path d="M14.071,81.180 C17.775,82.019 20.617,85.137 21.043,88.994 L10.530,88.994 L14.071,81.180 ZM21.043,89.999 C20.700,93.107 18.789,95.740 16.122,97.085 C16.274,97.056 16.430,97.037 16.590,97.037 C17.974,97.037 19.096,98.163 19.096,99.551 C19.096,100.939 17.974,102.065 16.590,102.065 C15.206,102.065 14.084,100.939 14.084,99.551 C14.084,98.699 14.509,97.950 15.155,97.495 C14.194,97.845 13.161,98.043 12.079,98.043 C7.435,98.043 3.615,94.523 3.116,89.999 L3.696,89.999 C3.517,89.481 3.292,88.797 3.057,87.988 C2.736,86.886 0.033,89.298 0.049,87.988 C0.070,86.390 2.654,85.339 4.059,86.983 C4.885,87.948 5.081,89.158 5.107,89.999 L21.043,89.999 ZM15.087,99.551 C15.087,100.384 15.760,101.059 16.590,101.059 C17.421,101.059 18.094,100.384 18.094,99.551 C18.094,98.718 17.421,98.043 16.590,98.043 C15.760,98.043 15.087,98.718 15.087,99.551 ZM6.565,97.037 C7.950,97.037 9.072,98.163 9.072,99.551 C9.072,100.939 7.950,102.065 6.565,102.065 C5.181,102.065 4.059,100.939 4.059,99.551 C4.059,98.163 5.181,97.037 6.565,97.037 ZM6.565,101.059 C7.396,101.059 8.069,100.384 8.069,99.551 C8.069,98.718 7.396,98.043 6.565,98.043 C5.735,98.043 5.062,98.718 5.062,99.551 C5.062,100.384 5.735,101.059 6.565,101.059 Z" class="cls-1"/>
    <path d="M21.512,51.482 L23.120,57.085 L21.375,57.085 L21.375,61.063 L19.312,61.063 L19.312,57.085 L18.281,57.085 L18.281,61.063 L16.250,61.063 L16.250,57.085 L14.124,57.085 L15.789,51.282 L13.124,48.409 L9.125,51.594 L9.125,56.094 L9.125,57.094 L9.125,61.063 L7.125,61.063 L7.125,57.094 L6.125,57.094 L6.125,61.063 L4.125,61.063 L4.125,57.094 L4.125,56.094 L4.125,51.756 L0.132,47.333 L1.815,46.140 L5.414,50.125 L7.770,50.125 L12.500,46.358 L12.871,46.819 L13.856,46.140 L17.548,50.120 L19.981,50.120 L24.835,46.358 L26.118,47.912 L21.512,51.482 ZM22.120,44.150 C21.790,43.985 21.467,43.824 21.176,43.679 C21.304,43.975 21.375,44.300 21.375,44.641 C21.375,46.013 20.228,47.125 18.812,47.125 C17.397,47.125 16.250,46.013 16.250,44.641 C16.250,44.436 16.283,44.240 16.331,44.050 C16.257,44.084 16.212,44.112 16.123,44.150 C15.196,44.547 13.360,45.145 13.360,45.145 C13.360,45.145 12.832,44.377 13.360,43.532 C13.755,42.901 15.660,43.213 16.598,43.412 C17.040,42.665 17.861,42.156 18.812,42.156 C19.574,42.156 20.251,42.485 20.720,42.996 C21.729,42.751 23.705,42.384 24.119,43.155 C24.680,44.198 24.119,45.145 24.119,45.145 C24.119,45.145 23.106,44.640 22.120,44.150 ZM6.625,47.125 C5.244,47.125 4.125,46.013 4.125,44.641 C4.125,43.269 5.244,42.156 6.625,42.156 C8.006,42.156 9.125,43.269 9.125,44.641 C9.125,46.013 8.006,47.125 6.625,47.125 Z" class="cls-1"/>
    <path d="M4.000,4.000 C2.895,4.000 2.000,3.105 2.000,2.000 C2.000,0.895 2.895,-0.000 4.000,-0.000 C5.105,-0.000 6.000,0.895 6.000,2.000 C6.000,3.105 5.105,4.000 4.000,4.000 ZM7.000,15.000 L5.778,15.000 L5.000,22.000 L3.000,22.000 L2.222,15.000 L1.000,15.000 L0.000,6.000 L8.000,6.000 L7.000,15.000 Z" class="cls-1"/>
  </g>
</svg>
