<?xml version="1.0" encoding="utf-8"?>
<!-- Generator: Adobe Illustrator 19.0.0, SVG Export Plug-In . SVG Version: 6.00 Build 0)  -->
<svg version="1.1" id="Calque_1" xmlns="http://www.w3.org/2000/svg" xmlns:xlink="http://www.w3.org/1999/xlink" x="0px" y="0px"
	 viewBox="0 0 510.4 361.7" style="enable-background:new 0 0 510.4 361.7;" xml:space="preserve">
<style type="text/css">
	.st0{fill:#4A4A30;}
	.st1{fill:none;}
	.st2{fill:#00728F;}
</style>
<polyline class="st0" points="30.3,361.7 21.5,357.1 12.6,361.7 14.3,351.9 7.2,344.9 17,343.4 21.5,334.5 25.9,343.4 35.8,344.9 
	28.6,351.9 30.3,361.7 "/>
<polyline class="st0" points="83,361.7 74.1,357.1 65.3,361.7 66.9,351.9 59.8,344.9 69.7,343.4 74.1,334.5 78.5,343.4 88.4,344.9 
	81.3,351.9 83,361.7 "/>
<polyline class="st0" points="135.6,361.7 126.7,357.1 117.9,361.7 119.6,351.9 112.4,344.9 122.3,343.4 126.7,334.5 131.2,343.4 
	141.1,344.9 133.9,351.9 135.6,361.7 "/>
<path class="st1" d="M156,162.5c-0.6-0.7-1.1-1.3-1.7-1.9C154.9,161.2,155.5,161.9,156,162.5z"/>
<path class="st1" d="M182.4,143c20.5,0,39.7-2.6,53.5-10.9c13.7-8.3,22.5-21.8,22.5-44.9c0-27.9-9.1-45.4-21.6-56.1
	c-12.6-10.7-28.9-14.6-43.6-14.6h-42.2v125c0.2,0,0.3,0,0.5,0L182.4,143z"/>
<path class="st0" d="M509.6,291.9c-0.7-0.7-1.7-1-2.5-1c-1,0-2,0.3-3.1,0.8c-24.8,8.3-49.8,12.5-75,12.5c-16.4,0-32.3-1.8-47.6-5.2
	c-15.4-3.5-29.8-8.1-43.2-13.9c-13.5-5.8-26-12.5-37.5-20c-11.6-7.6-22-15.4-31.3-23.4c-17.8-16-35.4-30.2-49.5-44.3
	c-7.9-7.9-24.5-21.5-37.3-35.8l27,0.8c28.3,0,48.8-8.5,62.2-22.3c13.4-13.8,19.4-32.7,19.4-53.2c0-25.7-8.2-47.5-24.4-62.8
	C250.6,8.7,226.5,0,195.2,0h-75.3v141.5h-6.6V0H82v141.5H31.2V0H0v307.4h31.2V160.4H82v147.1h31.2V160.4h6.6v147.1h31.2V162.8
	c2.9,3.1,6.8,8.4,11,13c5.8,6.3,11.8,13,18.1,19.8c6.4,6.8,12.5,13.4,18.4,19.7c5.9,6.4,11,11.8,15.3,16.1
	c14.9,14.7,29.3,27.3,43.1,37.6c13.9,10.4,28.6,18.9,44,25.5c15.4,6.6,32.3,11.4,50.7,14.6c18.4,3.1,39.7,4.7,63.9,4.7
	c17.1,0,33.1-1.4,48.1-4.3c14.9-2.9,29.1-6.6,42.7-11.2c1-0.2,1.9-0.5,2.6-1.1c0.8-0.6,1.4-1.8,1.4-2.8
	C510.4,293.6,510.2,292.6,509.6,291.9z M151.1,16.6h42.2c14.7,0,31,3.9,43.6,14.6c12.5,10.7,21.6,28.1,21.6,56.1
	c-0.1,23.2-8.8,36.7-22.5,44.9c-13.8,8.2-32.9,10.9-53.5,10.9l-30.9-1.4c-0.2,0-0.3,0-0.5,0V16.6z M463,305.6
	c-14.7,2.8-30.5,4.2-47.3,4.2c-24.1,0-45.2-1.6-63.3-4.7c-18.1-3.1-34.7-7.9-49.8-14.3c-15.1-6.4-29.5-14.8-43.2-25
	c-13.7-10.2-27.9-22.7-42.7-37.3c-4.2-4.3-9.3-9.6-15.2-16c-5.9-6.4-12.1-13-18.4-19.7c-6.3-6.8-12.3-13.4-18.1-19.7
	c-3.1-3.4-6.2-7.4-8.9-10.7c-0.6-0.7-1.1-1.3-1.7-1.9c-0.8-0.8-1.5-1.6-2.3-2.2c-0.9-0.8-1.9-1.4-3-1.8c0,0-0.8-0.2-1-0.2
	c-0.2,0-0.7,0-0.7,0l-116.2,0v-11.1H149v0c8.5,0.4,12.9,2.2,16.6,4.9c3.7,2.7,6.8,6.7,12,11.4c13.3,15.4,31.5,30.3,39.5,38.3
	c14.3,14.3,31.9,28.5,49.7,44.5c9.4,8.2,20,16.1,31.7,23.8c11.8,7.7,24.5,14.4,38.1,20.3c13.7,5.9,28.3,10.6,43.9,14.1
	c15.6,3.6,31.8,5.3,48.4,5.3c11.8,0,23.5-0.9,35.2-2.7C463.8,305.5,463.4,305.5,463,305.6z"/>
<path class="st2" d="M429,308.1c-16.7,0-32.8-1.8-48.4-5.3c-15.6-3.6-30.2-8.3-43.9-14.1c-13.7-5.9-26.4-12.6-38.1-20.3
	c-11.7-7.6-22.3-15.6-31.7-23.8c-17.8-16-35.4-30.2-49.7-44.5c-8-8-26.2-22.9-39.5-38.3c-5.2-4.8-8.3-8.7-12-11.4
	c-3.7-2.7-8.1-4.5-16.6-4.9v0h-29.2h-6.6H82H31.2v11.1l50.7,0l31.2,0l34.2,0c0,0,0.5,0,0.7,0c0.3,0,1,0.2,1,0.2c1.1,0.3,2,1,3,1.8
	c0.8,0.6,1.5,1.4,2.3,2.2c0.6,0.6,1.1,1.2,1.7,1.9c2.7,3.2,5.8,7.2,8.9,10.7c5.8,6.3,11.8,13,18.1,19.7c6.4,6.8,12.5,13.4,18.4,19.7
	c5.9,6.4,11,11.7,15.2,16c14.8,14.6,29,27,42.7,37.3c13.7,10.2,28,18.5,43.2,25c15.1,6.4,31.7,11.2,49.8,14.3
	c18.1,3.1,39.2,4.7,63.3,4.7c16.8,0,32.6-1.4,47.3-4.2c0.4-0.1,0.8-0.2,1.2-0.2C452.5,307.2,440.8,308.1,429,308.1z"/>
</svg>
