<svg xmlns="http://www.w3.org/2000/svg" xmlns:xlink="http://www.w3.org/1999/xlink" version="1.1" id="Layer_1" x="0px" y="0px" viewBox="0 0 42 28.8" xml:space="preserve" enable-background="new 0 0 42 28.8">
  <style type="text/css">
	.st0{fill:#EFC581;}
  </style>
  <path id="XMLID_19_" class="st0" d="M41.4 13c-0.4-1-1-1.9-1.8-2.6 -0.8-0.8-1.8-1.3-2.9-1.8C35.5 8.2 34.2 8 32.6 8c-0.5 0-1 0.1-1.5 0.1 0-1-0.3-2.1-0.7-3 -0.4-0.9-0.9-1.6-1.6-2.3 -0.1-0.1-0.2-0.2-0.3-0.3 -0.8-0.8-1.8-1.3-2.9-1.8 -1.1-0.5-2.5-0.7-4-0.7 -0.1 0-0.2 0-0.4 0 -1.1 0-2.2 0.2-3.2 0.6 -1.1 0.4-2.1 0.9-3 1.5 -0.2 0.1-0.3 0.2-0.5 0.3 -0.4 0.4-0.8 0.7-1.2 1.1 -0.2 0.3-0.4 0.5-0.6 0.8 -0.6 0.9-1 1.8-1.2 2.7C11.2 7 10.8 7 10.4 6.9c-0.4 0-0.8-0.1-1.2-0.1 -0.9 0-1.9 0.1-3 0.4C5.1 7.6 4.1 8 3.2 8.6c-0.9 0.6-1.7 1.3-2.3 2.1C0.3 11.5 0 12.5 0 13.7c0 0.9 0.4 1.7 1.1 2.5 0.8 0.8 1.9 1.2 3.5 1.2 0.1 0 0.2-0.1 0.3-0.2 0-0.1-0.1-0.2-0.3-0.2 -0.4 0-0.7-0.1-1.2-0.2 -0.4-0.1-0.8-0.2-1.2-0.5 -0.4-0.2-0.8-0.6-1-1 -0.3-0.4-0.4-1-0.4-1.7 0-1 0.3-1.9 0.8-2.7 0.5-0.8 1.2-1.5 2-2C4.5 8.4 5.4 8 6.3 7.7c1-0.3 1.9-0.4 2.7-0.4 0.5 0 0.9 0 1.3 0.1 0.4 0 0.8 0.1 1.1 0.2 0 0.2-0.1 0.3-0.1 0.5 0 0.2 0 0.4 0 0.5 0 1.3 0.3 2.2 0.9 2.9 0.4 0.4 0.8 0.7 1.2 0.8 0.2 0.1 0.5 0.1 0.8 0.1 0.2 0 0.3 0 0.4-0.1 0.3-0.1 0.5-0.2 0.7-0.4 0.2-0.3 0.4-0.6 0.4-1 0-0.8-0.3-1.6-0.9-2.3 0 0-0.1-0.1-0.1-0.1 -0.3-0.3-0.7-0.6-1.2-0.9 -0.4-0.2-0.8-0.4-1.3-0.5 0.2-1 0.7-1.9 1.3-2.6 0.4-0.5 0.8-0.8 1.2-1.2 0.3-0.3 0.7-0.5 1-0.8 0.9-0.6 1.8-1 2.8-1.2 0.9-0.3 1.9-0.4 2.8-0.4h0.4c1.5 0 2.8 0.2 3.9 0.6 1.1 0.4 2 0.9 2.7 1.6 0.2 0.2 0.4 0.4 0.6 0.6 0.5 0.5 0.8 1.1 1.1 1.7 0.4 0.9 0.6 1.8 0.6 2.7 -0.6 0.2-1.2 0.4-1.7 0.7 -0.4 0.2-0.7 0.4-1 0.7 -0.8 0.7-1.2 1.5-1.2 2.5 0 0.4 0.1 0.7 0.4 1.1 0.3 0.4 0.6 0.5 1.1 0.5 0.3 0 0.6-0.1 0.8-0.2 0.2-0.1 0.3-0.2 0.5-0.3 0.4-0.3 0.7-0.7 0.9-1.1 0.3-0.5 0.5-1 0.6-1.6 0.1-0.6 0.2-1.3 0.2-2 0.3-0.1 0.6-0.1 0.9-0.1 0.3 0 0.5 0 0.8 0 1.2 0 2.3 0.2 3.4 0.7 1 0.5 1.9 1.1 2.7 1.9 0.8 0.8 1.3 1.6 1.8 2.6 0.4 1 0.6 2 0.6 2.9 0 1.4-0.2 2.5-0.7 3.5 -0.5 0.9-1.1 1.6-1.9 2.2 -0.8 0.5-1.6 0.9-2.5 1.1 -0.9 0.2-1.8 0.3-2.7 0.3 -1.4 0-2.9-0.3-4.4-0.8 -0.2-0.1-0.4-0.1-0.5-0.2 -1.7-0.7-3.6-1.3-5.5-2.1 -0.5-0.2-1-0.4-1.5-0.6 -1.5-0.5-3.1-1.1-4.7-1.5 -0.7-0.2-1.3-0.4-2-0.5 -0.4-0.1-0.8-0.1-1.2-0.2 -1.2-0.2-2.5-0.3-3.9-0.3 -1 0-2 0.1-3.1 0.4 -1.1 0.3-2.1 0.7-3.1 1.2 -0.9 0.5-1.7 1.2-2.3 1.9 -0.6 0.8-0.9 1.6-0.9 2.5 0 1.1 0.4 2 1.2 2.7 0.8 0.7 2.1 1.1 3.9 1.1 1 0 1.8-0.1 2.3-0.4 0.6-0.2 1.1-0.6 1.4-1.1 0.1-0.1 0.1-0.2 0-0.3 -0.1 0-0.2 0-0.3 0.1 -0.3 0.4-0.7 0.7-1.3 0.9C6.8 26.9 6.2 27 5.6 27c-0.5 0-1-0.1-1.6-0.2 -0.6-0.1-1.1-0.3-1.6-0.6 -0.5-0.3-0.9-0.6-1.2-1 -0.3-0.4-0.5-0.9-0.5-1.5 0-0.9 0.3-1.6 0.8-2.4 0.6-0.7 1.3-1.3 2.1-1.8 0.9-0.5 1.8-0.9 2.8-1.1 1-0.3 2-0.4 2.9-0.4 1.4 0 2.7 0.2 4.1 0.5 0.4 0.1 0.8 0.2 1.2 0.4 0.1 0 0.2 0.1 0.3 0.1 1.9 0.7 3.8 1.4 5.8 2.2 0.2 0.1 0.5 0.2 0.7 0.3 1.7 0.7 3.5 1.3 5.3 1.9 0.8 0.2 1.5 0.4 2.3 0.6 1.3 0.3 2.7 0.4 4.1 0.4 1 0 2.1-0.2 3.1-0.5 1-0.3 2-0.8 2.9-1.4 0.9-0.7 1.6-1.5 2.2-2.5 0.6-1 0.8-2.2 0.8-3.6C42 15.1 41.8 14.1 41.4 13zM13.4 8.3c0.3 0.2 0.5 0.4 0.8 0.6 0.2 0.2 0.3 0.4 0.5 0.7 0.2 0.4 0.3 0.9 0.3 1.4 0 0.4-0.1 0.7-0.3 0.8 0 0 0 0-0.1 0 -0.2 0.1-0.3 0.2-0.5 0.2 -0.3 0-0.5-0.1-0.7-0.2 -0.3-0.2-0.6-0.4-0.8-0.7 -0.4-0.6-0.7-1.3-0.7-2.2 0-0.2 0-0.5 0-0.7 0-0.2 0-0.4 0.1-0.6C12.5 7.9 13 8.1 13.4 8.3zM30.6 8.8c0 0.5-0.1 1-0.2 1.6 -0.1 0.5-0.3 1-0.5 1.4 -0.2 0.4-0.5 0.8-0.8 1 -0.1 0.1-0.2 0.1-0.2 0.2 -0.2 0.1-0.5 0.2-0.7 0.2 -0.4 0-0.7-0.2-0.8-0.5 -0.1-0.3-0.2-0.6-0.2-0.9 0-0.8 0.3-1.4 1-1.9 0.2-0.2 0.4-0.3 0.7-0.5C29.4 9.1 30 8.9 30.6 8.8L30.6 8.8zM35.5 25.4c-0.1 0.2-0.4 0.4-0.9 0.6 -0.5 0.3-1.1 0.4-2.1 0.4 -1.2 0-2.4-0.1-3.7-0.4 0 0-0.1 0-0.1 0 -1.3-0.3-2.5-0.7-3.8-1.2 -1.2-0.4-2.4-0.9-3.6-1.4 -0.1-0.1-0.2-0.1-0.3-0.1 -1.3-0.6-2.7-1.1-4-1.5 -0.8-0.3-1.6-0.5-2.4-0.7 -0.4-0.1-0.8-0.2-1.2-0.3 -0.2 0-0.4-0.1-0.5-0.1 -1.4-0.3-2.8-0.5-4.3-0.5 -0.7 0-1.3 0.1-2 0.4 -0.7 0.3-1.2 0.6-1.7 0.9 -0.2 0.1-0.2 0.2-0.2 0.4 0 0.1 0.1 0.1 0.2 0.1 0.4-0.3 0.9-0.5 1.5-0.8 0.6-0.2 1.3-0.3 2.3-0.3 1.3 0 2.8 0.3 4.6 1 0 0 0.1 0 0.1 0 0.4 0.2 0.8 0.3 1.2 0.5 1.4 0.5 2.9 1.1 4.4 1.7 0.8 0.3 1.5 0.6 2.3 0.8 1.3 0.5 2.7 0.9 4.1 1.3 1.1 0.3 2.3 0.6 3.4 0.8C30 26.9 31 27 32.1 27c1 0 1.8-0.1 2.4-0.4 0.6-0.3 1-0.6 1.4-1 0.1-0.1 0-0.2-0.1-0.3C35.8 25.3 35.7 25.3 35.5 25.4zM20.4 4.4c0.3 0 0.6 0 0.8 0 1.2 0.1 2.4 0.3 3.5 0.8C26.1 5.7 27.2 6.7 28 8c0.1 0.1 0.1 0.2 0.2 0.1 0.1 0 0.1-0.1 0-0.3C28 7 27.6 6.4 27 5.8c-0.6-0.6-1.2-1-1.8-1.3 -0.7-0.4-1.4-0.6-2.2-0.8 -0.6-0.1-1.2-0.2-1.7-0.2 -0.2 0-0.3 0-0.5 0 -0.6 0-1.3 0.1-1.9 0.3 -0.7 0.2-1.3 0.4-1.9 0.8 -0.6 0.3-1.1 0.7-1.6 1.2 -0.3 0.3-0.6 0.6-0.8 0.9 -0.1 0.2-0.2 0.3-0.3 0.5 -0.1 0.2 0 0.3 0 0.3 0.1 0 0.1 0 0.2-0.2 0 0 0 0 0 0 0.2-0.4 0.5-0.8 0.9-1.1 0.4-0.4 0.9-0.6 1.5-0.9 0.6-0.3 1.1-0.4 1.7-0.6C19.3 4.5 19.9 4.4 20.4 4.4zM13.4 15c-0.5 0-1.1-0.1-1.6-0.1 -0.8 0-1.6 0.1-2.4 0.2 -0.8 0.1-1.5 0.3-2 0.5 -0.2 0.1-0.3 0.2-0.3 0.3 0 0.1 0.1 0.1 0.1 0.1 0.5-0.2 1-0.4 1.5-0.4 0.5-0.1 1.1-0.1 1.9-0.1 0.9 0 1.9 0.1 2.8 0.2 0.4 0.1 0.8 0.2 1.2 0.3 0.5 0.1 1 0.3 1.5 0.4 1.8 0.6 3.5 1.2 5.2 1.8 0.1 0 0.2 0.1 0.2 0.1 1.8 0.7 3.6 1.3 5.4 1.9 0.7 0.2 1.3 0.4 1.9 0.5 1.1 0.2 2.2 0.4 3.3 0.4 1.4 0 2.4-0.2 3.2-0.7 0.8-0.4 1.3-1.2 1.6-2.2 0-0.2 0-0.3-0.1-0.3 -0.1-0.1-0.2 0-0.2 0.1 -0.4 1.7-1.7 2.5-4.1 2.5 -1.3 0-2.5-0.2-3.8-0.7 -0.2-0.1-0.4-0.2-0.6-0.2 -1.4-0.6-3-1.2-4.6-1.9 -0.8-0.3-1.6-0.6-2.4-0.9 -0.9-0.4-1.9-0.7-3-1 -1.1-0.4-2.4-0.6-3.8-0.7C14.2 15.1 13.8 15.1 13.4 15z"/>
</svg>
