<svg xmlns="http://www.w3.org/2000/svg" xmlns:xlink="http://www.w3.org/1999/xlink" preserveAspectRatio="xMidYMid" width="34" height="247" viewBox="0 0 34 247">
  <defs>
    <style>
      .cls-1 {
        fill: #efc581;
        fill-rule: evenodd;
      }
    </style>
  </defs>
  <g>
    <path d="M17.000,215.000 C8.164,215.000 1.000,222.164 1.000,231.000 C1.000,239.836 8.164,247.000 17.000,247.000 C25.836,247.000 33.000,239.836 33.000,231.000 C33.000,222.164 25.836,215.000 17.000,215.000 ZM17.000,244.000 C9.832,244.000 4.000,238.168 4.000,231.000 C4.000,223.832 9.832,218.000 17.000,218.000 C24.168,218.000 30.000,223.832 30.000,231.000 C30.000,238.168 24.168,244.000 17.000,244.000 ZM22.500,227.000 C22.062,227.000 21.672,227.190 21.398,227.489 L21.395,227.486 L17.000,232.279 L12.605,227.486 L12.601,227.489 C12.328,227.190 11.938,227.000 11.500,227.000 C10.672,227.000 10.000,227.672 10.000,228.500 C10.000,228.891 10.153,229.243 10.398,229.511 L10.394,229.514 L15.894,235.514 C16.179,235.823 16.579,236.000 17.000,236.000 C17.421,236.000 17.820,235.823 18.106,235.514 L23.606,229.514 L23.602,229.511 C23.848,229.243 24.000,228.891 24.000,228.500 C24.000,227.672 23.328,227.000 22.500,227.000 Z" class="cls-1"/>
    <path d="M33.845,174.133 C33.394,174.783 32.029,174.953 31.034,175.078 C30.662,175.124 30.384,175.159 30.208,175.200 C29.276,175.295 28.393,175.737 27.657,176.480 C27.364,176.776 27.214,177.056 27.094,177.281 C26.909,177.627 26.853,177.732 26.337,177.771 C26.038,177.806 25.756,177.683 25.451,177.548 C25.120,177.402 24.506,177.000 24.000,177.000 C23.091,177.083 22.529,177.973 21.884,178.498 C21.738,178.617 21.598,178.732 21.444,178.849 C20.708,179.479 20.002,179.784 19.285,179.784 C18.313,179.784 17.390,179.245 16.317,178.615 C15.667,178.235 14.995,177.841 14.229,177.528 C13.788,177.371 13.450,177.000 13.000,177.000 C11.928,177.000 10.757,177.730 9.743,178.596 L9.469,178.854 C9.038,179.259 8.665,179.611 8.384,179.611 C8.369,179.611 8.357,179.611 8.342,179.609 C8.177,179.592 7.882,179.431 7.423,178.770 C7.203,178.425 7.062,178.054 6.925,177.693 C6.578,176.790 6.221,175.855 4.766,175.562 C4.584,175.525 4.399,175.506 4.215,175.506 C3.592,175.506 3.051,175.714 2.528,175.915 C2.064,176.094 1.624,176.261 1.182,176.262 C0.630,176.241 0.306,176.055 0.130,175.662 C-0.374,174.524 0.575,172.006 1.119,170.991 C3.238,173.884 9.174,176.000 16.000,176.000 C21.852,176.000 27.861,174.324 30.939,172.096 L31.100,172.095 C32.483,172.095 33.786,172.235 33.956,173.260 C34.039,173.623 34.003,173.909 33.845,174.133 ZM31.000,170.000 L30.000,171.000 C27.148,173.196 21.882,174.000 16.000,174.000 C7.949,174.000 1.168,171.580 1.168,168.169 C1.168,165.741 8.286,161.876 16.721,161.876 C25.155,161.876 32.275,165.741 32.275,168.169 C32.275,169.027 32.048,169.175 31.000,170.000 ZM7.434,166.571 C6.717,166.571 6.134,167.002 6.134,167.533 C6.134,168.063 6.717,168.494 7.434,168.494 C8.151,168.494 8.735,168.063 8.735,167.533 C8.735,167.002 8.151,166.571 7.434,166.571 ZM18.603,166.571 C17.937,166.571 17.395,166.972 17.395,167.465 C17.395,167.958 17.937,168.359 18.603,168.359 C19.267,168.359 19.810,167.958 19.810,167.465 C19.810,166.972 19.267,166.571 18.603,166.571 ZM20.468,170.464 C20.008,170.464 19.634,170.746 19.634,171.090 C19.634,171.436 20.008,171.716 20.468,171.716 C20.929,171.716 21.303,171.436 21.303,171.090 C21.303,170.746 20.929,170.464 20.468,170.464 ZM25.941,166.571 C25.481,166.571 25.107,166.851 25.107,167.196 C25.107,167.541 25.481,167.822 25.941,167.822 C26.401,167.822 26.775,167.541 26.775,167.196 C26.775,166.851 26.401,166.571 25.941,166.571 ZM17.000,183.000 C7.301,183.000 0.559,180.368 0.559,178.335 C0.559,178.097 0.666,177.847 0.876,177.586 C0.967,177.601 1.060,177.614 1.166,177.619 C1.787,177.619 2.324,177.413 2.842,177.214 C3.309,177.034 3.750,176.865 4.221,176.865 C4.348,176.865 4.471,176.876 4.595,176.902 C5.576,177.099 5.785,177.649 6.105,178.485 C6.251,178.869 6.418,179.301 6.694,179.734 C7.244,180.527 7.724,180.907 8.253,180.961 C8.945,181.033 9.484,180.525 10.113,179.930 L10.326,179.731 C10.903,179.237 11.819,178.649 12.895,178.649 C13.239,178.649 13.585,178.710 13.918,178.828 C14.612,179.113 15.257,179.490 15.884,179.858 C17.023,180.525 18.101,181.156 19.301,181.156 C20.215,181.156 21.096,180.780 21.993,180.013 C22.134,179.906 22.283,179.785 22.437,179.660 C23.016,179.187 23.674,178.654 24.278,178.596 C24.560,178.596 24.822,178.711 25.104,178.834 C25.426,178.976 25.794,179.137 26.226,179.137 C26.291,179.137 26.356,179.133 26.420,179.126 C27.399,179.050 27.648,178.583 27.869,178.172 C27.971,177.981 28.075,177.784 28.280,177.578 C28.691,177.162 29.383,176.646 30.345,176.546 C30.534,176.505 30.792,176.473 31.063,176.439 C32.304,177.049 32.986,177.721 32.987,178.335 C32.987,180.368 26.699,183.000 17.000,183.000 ZM2.363,181.146 L2.369,181.146 C5.458,182.556 11.202,183.966 17.000,184.000 C22.748,184.034 28.900,183.395 32.000,182.000 C33.216,182.604 32.986,182.451 32.985,183.059 C32.985,185.092 26.699,187.000 17.000,187.000 C7.301,187.000 0.558,185.092 0.558,183.059 C0.558,182.766 0.709,182.466 1.023,182.135 C1.324,181.753 1.953,181.146 2.363,181.146 ZM2.366,186.003 C2.377,186.003 2.388,186.003 2.399,186.004 L2.487,186.013 L2.494,185.926 C5.604,187.301 11.056,188.154 16.773,188.154 C22.415,188.154 27.836,187.317 30.957,185.967 C32.266,186.589 32.986,187.282 32.985,187.917 C32.985,189.950 26.471,192.126 16.772,192.126 C7.073,192.126 0.558,189.950 0.558,187.917 C0.558,187.627 0.709,187.326 1.023,186.993 C1.346,186.582 1.978,186.003 2.366,186.003 Z" class="cls-1"/>
    <path d="M33.804,127.067 C33.532,126.575 33.009,126.269 32.440,126.269 L32.030,126.269 C32.060,126.156 32.100,126.054 32.124,125.935 C32.422,124.474 32.279,122.719 31.721,120.992 C30.900,118.443 27.875,115.170 26.145,113.446 C25.744,113.048 25.115,112.900 24.580,113.066 C24.022,113.239 23.617,113.699 23.522,114.265 C23.325,115.436 23.093,117.087 23.003,118.767 C22.938,118.709 22.866,118.662 22.793,118.617 C22.050,115.790 20.307,113.892 18.297,113.997 C16.539,114.114 15.170,115.825 14.637,118.250 C13.647,117.689 12.643,117.373 11.725,117.373 C10.962,117.373 10.253,117.571 9.676,118.064 C9.511,117.359 9.341,116.707 9.191,116.168 C9.036,115.615 8.585,115.198 8.012,115.082 C7.448,114.970 6.857,115.178 6.495,115.621 C4.957,117.510 2.293,121.072 1.743,123.693 C1.558,124.571 1.477,125.446 1.495,126.278 C0.949,126.302 0.451,126.600 0.191,127.078 C-0.079,127.576 -0.048,128.180 0.272,128.649 L2.657,132.148 C3.449,133.310 4.778,134.007 6.200,134.007 L27.884,134.007 C29.331,134.007 30.680,133.286 31.466,132.090 L33.744,128.628 C34.053,128.158 34.076,127.559 33.804,127.067 ZM18.488,115.669 C19.381,115.669 20.420,116.815 21.005,118.621 C19.620,119.105 17.780,119.817 16.116,120.688 C16.075,117.804 17.237,115.750 18.488,115.669 ZM4.067,126.269 L3.201,126.269 C3.184,125.557 3.252,124.801 3.413,124.033 C3.883,121.795 6.380,118.472 7.629,116.914 C7.882,117.848 8.237,119.282 8.481,120.765 C5.843,120.627 3.879,122.670 3.879,125.042 C3.878,125.470 3.948,125.880 4.067,126.269 ZM10.590,126.269 L5.909,126.269 C5.708,125.901 5.584,125.488 5.584,125.042 C5.584,123.596 6.780,122.420 8.250,122.420 C9.720,122.420 10.915,123.596 10.915,125.042 C10.915,125.488 10.791,125.901 10.590,126.269 ZM10.317,121.277 C10.202,120.383 10.366,119.674 10.802,119.328 C11.035,119.145 11.345,119.051 11.725,119.051 C12.418,119.051 13.388,119.387 14.406,120.098 C14.390,120.511 14.390,121.360 14.466,121.669 C13.937,122.025 13.449,122.393 13.071,122.779 C12.808,123.047 12.579,123.326 12.351,123.605 C11.987,122.601 11.258,121.779 10.317,121.277 ZM16.907,126.269 L18.681,124.462 C19.008,124.128 18.998,123.597 18.660,123.275 C18.321,122.954 17.780,122.963 17.454,123.296 L14.536,126.269 L12.606,126.269 C12.988,125.514 13.541,124.717 14.298,123.944 C15.924,122.287 19.894,120.780 21.732,120.137 C21.259,121.629 20.294,124.366 19.116,126.269 L16.907,126.269 L16.907,126.269 ZM25.094,126.269 L21.402,126.269 C21.329,126.200 21.249,126.137 21.185,126.060 C21.908,124.671 22.512,123.129 22.971,121.803 C23.058,121.795 23.142,121.777 23.231,121.777 C24.700,121.777 25.896,122.953 25.896,124.399 C25.896,125.132 25.588,125.793 25.094,126.269 ZM27.126,126.269 C27.322,125.878 27.472,125.463 27.539,125.014 L27.943,126.269 L27.126,126.269 ZM30.452,125.605 C30.402,125.850 30.333,126.068 30.254,126.269 L29.733,126.269 L27.562,119.540 C27.419,119.098 26.940,118.853 26.491,118.994 C26.042,119.134 25.793,119.606 25.936,120.048 L26.384,121.436 C25.914,120.952 25.329,120.586 24.675,120.359 C24.652,118.368 24.945,116.145 25.154,114.849 C26.562,116.272 29.394,119.324 30.096,121.500 C30.567,122.960 30.693,124.418 30.452,125.605 Z" class="cls-1"/>
    <path d="M30.116,76.512 L28.615,75.520 C31.418,71.254 31.788,65.604 29.066,60.890 C25.226,54.238 16.689,51.951 10.039,55.791 C3.388,59.632 1.099,68.169 4.939,74.821 C7.660,79.534 12.742,82.042 17.836,81.743 L17.943,83.539 C12.191,83.880 6.462,81.051 3.384,75.719 C-0.960,68.194 1.619,58.578 9.140,54.235 C16.703,49.935 26.279,52.468 30.623,59.989 C33.701,65.324 33.287,71.700 30.116,76.512 ZM5.718,74.369 C2.125,68.146 4.266,60.163 10.488,56.570 C16.709,52.979 24.695,55.116 28.287,61.339 C30.834,65.750 30.490,71.037 27.863,75.026 L17.002,67.853 L17.781,80.845 C13.015,81.125 8.264,78.780 5.718,74.369 ZM7.702,72.954 C8.100,73.645 8.845,74.074 9.647,74.074 C10.037,74.074 10.424,73.971 10.766,73.775 C11.831,73.156 12.199,71.780 11.583,70.711 C11.183,70.018 10.438,69.589 9.637,69.589 C9.245,69.589 8.860,69.691 8.520,69.888 C7.450,70.507 7.082,71.880 7.702,72.954 ZM10.986,60.081 C10.822,59.798 10.518,59.622 10.191,59.622 C10.032,59.622 9.875,59.664 9.735,59.744 C9.298,59.997 9.146,60.559 9.400,60.995 C9.564,61.279 9.868,61.455 10.194,61.455 C10.355,61.455 10.512,61.413 10.652,61.333 C10.864,61.210 11.016,61.012 11.079,60.776 C11.140,60.541 11.107,60.293 10.986,60.081 ZM14.648,63.237 C14.476,62.760 13.428,62.055 12.335,62.055 C12.059,62.055 11.797,62.099 11.555,62.189 C10.768,62.475 10.324,63.157 10.130,63.540 C9.853,64.086 9.745,64.666 9.859,64.981 C9.979,65.314 10.392,65.497 11.023,65.497 C11.289,65.497 11.578,65.465 11.883,65.402 C11.987,66.049 12.151,66.765 12.274,67.105 C12.351,67.315 12.470,67.556 12.713,67.556 C12.842,67.556 12.964,67.487 13.107,67.408 C13.199,67.358 13.296,67.304 13.404,67.266 C13.510,67.225 13.619,67.204 13.722,67.186 C13.919,67.147 14.104,67.110 14.193,66.955 C14.263,66.832 14.252,66.661 14.163,66.416 C14.052,66.116 13.740,65.480 13.368,64.861 C14.310,64.356 14.822,63.712 14.648,63.237 ZM15.617,75.261 C15.453,74.977 15.151,74.802 14.824,74.802 C14.663,74.802 14.505,74.845 14.364,74.927 C13.928,75.177 13.776,75.738 14.029,76.178 C14.193,76.459 14.497,76.638 14.824,76.638 C14.985,76.638 15.141,76.592 15.282,76.513 C15.719,76.260 15.869,75.697 15.617,75.261 ZM23.015,70.056 C23.179,70.340 23.482,70.513 23.809,70.513 C23.970,70.513 24.129,70.471 24.267,70.390 C24.705,70.135 24.856,69.576 24.601,69.139 C24.438,68.856 24.135,68.681 23.807,68.681 C23.646,68.681 23.491,68.722 23.350,68.803 C22.913,69.056 22.763,69.617 23.015,70.056 ZM22.270,65.281 C22.406,65.836 22.667,66.298 22.934,66.461 C23.365,66.721 24.105,66.340 24.776,65.521 C25.317,66.013 25.878,66.442 26.146,66.606 C26.316,66.709 26.448,66.757 26.562,66.757 C26.810,66.757 26.901,66.535 26.987,66.324 C27.029,66.226 27.069,66.122 27.129,66.025 C27.187,65.930 27.260,65.845 27.329,65.764 C27.458,65.609 27.579,65.467 27.550,65.290 C27.528,65.150 27.413,65.024 27.189,64.887 C26.920,64.725 26.280,64.422 25.596,64.169 C26.015,63.188 26.013,62.365 25.581,62.101 C25.436,62.014 25.211,61.967 24.936,61.967 C24.134,61.967 23.032,62.360 22.509,63.219 C22.172,63.776 22.086,64.528 22.270,65.281 ZM18.170,59.404 C18.461,59.906 19.004,60.218 19.585,60.218 C19.870,60.218 20.151,60.142 20.398,60.000 C21.178,59.550 21.446,58.550 20.995,57.772 C20.705,57.269 20.163,56.956 19.583,56.956 C19.297,56.956 19.016,57.033 18.767,57.175 C17.989,57.626 17.721,58.624 18.170,59.404 ZM24.866,81.473 C23.053,82.519 21.091,83.067 19.130,83.180 L18.351,70.189 L29.213,77.361 C28.134,79.000 26.678,80.427 24.866,81.473 ZM21.140,81.333 C21.304,81.617 21.608,81.791 21.934,81.791 C22.094,81.791 22.253,81.749 22.392,81.667 C22.605,81.548 22.755,81.349 22.818,81.110 C22.882,80.874 22.849,80.629 22.727,80.416 C22.564,80.136 22.258,79.957 21.931,79.957 C21.773,79.957 21.614,80.002 21.476,80.080 C21.264,80.205 21.112,80.402 21.049,80.638 C20.984,80.873 21.018,81.122 21.140,81.333 ZM24.461,77.249 C24.314,77.051 23.972,76.692 23.642,76.389 C24.166,75.861 24.373,75.328 24.157,75.034 C23.979,74.793 23.448,74.609 22.925,74.609 C22.633,74.609 22.208,74.666 21.841,74.937 C21.468,75.215 21.207,75.685 21.127,76.227 C21.069,76.626 21.118,77.002 21.252,77.181 C21.318,77.272 21.455,77.379 21.729,77.379 C21.998,77.379 22.339,77.276 22.697,77.084 C22.900,77.506 23.141,77.930 23.283,78.122 C23.405,78.285 23.510,78.357 23.626,78.357 C23.756,78.357 23.850,78.264 23.949,78.163 C23.999,78.111 24.052,78.059 24.113,78.012 C24.173,77.967 24.241,77.932 24.305,77.899 C24.435,77.830 24.559,77.766 24.592,77.632 C24.616,77.526 24.576,77.407 24.461,77.249 ZM29.963,77.855 L31.465,78.847 C30.161,80.824 28.405,82.544 26.214,83.807 C24.023,85.074 21.658,85.734 19.292,85.875 L19.185,84.075 C21.281,83.956 23.378,83.370 25.316,82.252 C27.252,81.133 28.808,79.610 29.963,77.855 Z" class="cls-1"/>
    <path d="M32.474,20.015 L1.526,20.015 C0.687,20.015 0.000,19.359 0.000,18.558 L0.000,17.465 C0.000,16.664 0.687,16.008 1.526,16.008 L32.474,16.008 C33.313,16.008 34.000,16.664 34.000,17.465 L34.000,18.558 C34.000,19.359 33.313,20.015 32.474,20.015 ZM31.554,13.013 L3.423,13.013 C1.244,13.013 1.011,11.537 1.011,10.771 C1.011,4.108 10.249,-0.011 16.903,-0.011 L18.097,-0.011 C24.751,-0.011 33.989,4.108 33.989,10.771 C33.989,11.537 33.989,13.013 31.554,13.013 ZM10.138,5.838 C9.423,5.408 8.328,5.921 7.692,6.983 C7.056,8.045 7.121,9.253 7.836,9.683 C8.551,10.112 9.646,9.600 10.282,8.538 C10.917,7.476 10.853,6.267 10.138,5.838 ZM17.500,5.419 C16.704,5.419 16.058,6.467 16.058,7.760 C16.058,9.053 16.704,10.101 17.500,10.101 C18.296,10.101 18.942,9.053 18.942,7.760 C18.942,6.467 18.296,5.419 17.500,5.419 ZM27.308,6.983 C26.672,5.921 25.577,5.408 24.862,5.838 C24.147,6.267 24.083,7.476 24.718,8.538 C25.354,9.600 26.449,10.112 27.164,9.683 C27.879,9.253 27.944,8.045 27.308,6.983 ZM3.446,23.009 L31.577,23.009 C33.756,23.009 33.989,24.506 33.989,25.283 C33.989,30.095 28.595,31.011 21.942,31.011 L13.058,31.011 C6.405,31.011 1.011,30.529 1.011,25.283 C1.011,24.506 1.011,23.009 3.446,23.009 Z" class="cls-1"/>
  </g>
</svg>
