<svg xmlns="http://www.w3.org/2000/svg" xmlns:xlink="http://www.w3.org/1999/xlink" preserveAspectRatio="xMidYMid" width="38" height="186" viewBox="0 0 38 186">
  <defs>
    <style>
      .cls-1 {
        fill: #c0a06c;
      }

      .cls-1, .cls-2 {
        fill-rule: evenodd;
      }

      .cls-2 {
        fill: #c4a0f0;
        filter: url(#color-overlay-1);
      }
    </style>

    <filter id="color-overlay-1" filterUnits="userSpaceOnUse">
      <feFlood flood-color="#c0a06c"/>
      <feComposite operator="in" in2="SourceGraphic"/>
      <feBlend in2="SourceGraphic" result="solidFill"/>
    </filter>
  </defs>
  <g>
    <path d="M28.924,126.978 C28.966,126.964 29.004,126.955 29.046,126.941 C29.067,126.934 29.021,126.973 28.925,127.042 C28.945,128.625 28.977,130.438 29.005,132.292 L29.188,132.473 L29.010,132.692 C29.048,135.220 29.074,137.299 29.046,137.938 C27.890,138.896 26.754,139.646 25.642,140.237 L25.592,140.420 L25.394,140.365 C15.767,145.285 8.173,137.692 8.183,137.825 L8.183,132.546 L8.041,132.406 L8.183,132.231 L8.183,121.942 C8.183,120.545 11.898,120.083 16.187,119.973 C16.450,118.817 17.657,117.943 19.111,117.943 C20.579,117.943 21.792,118.834 22.039,120.006 C25.890,120.162 29.046,120.655 29.046,121.942 C29.046,122.062 29.011,122.186 28.959,122.311 C28.893,123.030 28.896,124.765 28.924,126.978 ZM9.885,134.224 L9.176,133.526 L9.176,136.939 C9.150,136.872 14.886,142.254 22.873,139.657 L21.764,139.345 L22.565,136.456 L26.393,137.531 L26.225,138.137 C26.826,137.784 27.434,137.389 28.052,136.934 C28.202,136.824 28.259,135.451 28.267,133.608 L27.767,134.224 L26.493,132.968 L27.044,134.861 L22.961,135.953 L22.106,133.018 L26.189,131.926 L26.222,132.038 L27.344,130.655 L28.258,131.557 C28.245,130.221 28.217,128.807 28.186,127.515 C25.419,129.160 16.516,133.385 9.273,127.021 C9.985,127.598 15.197,131.229 28.178,127.204 C28.135,125.457 28.088,123.988 28.065,123.325 C27.536,123.729 26.815,124.126 25.960,124.486 C23.931,125.647 20.459,126.843 15.717,125.714 C12.951,125.290 10.486,124.329 9.176,123.335 L9.176,131.007 L9.462,130.655 L11.305,132.473 L9.885,134.224 ZM22.031,120.947 C21.752,122.086 20.551,122.942 19.111,122.942 C17.668,122.942 16.466,122.082 16.191,120.940 C12.961,120.948 10.170,121.055 10.170,121.942 C10.170,123.046 15.632,124.999 18.614,124.941 C22.106,124.873 27.059,123.046 27.059,121.942 C27.059,121.148 24.818,120.980 22.031,120.947 ZM13.670,137.421 L9.842,136.346 L10.644,133.457 L14.471,134.532 L13.670,137.421 ZM18.813,134.681 L18.806,137.223 L14.441,137.197 L14.449,134.655 L18.813,134.681 ZM18.184,138.716 L17.607,140.121 L15.071,139.160 L15.648,137.756 L18.184,138.716 ZM22.083,137.399 L19.633,137.945 L19.120,136.478 L21.570,135.932 L22.083,137.399 ZM16.274,133.164 L16.695,130.897 L19.962,131.715 L19.540,133.982 L16.274,133.164 ZM12.015,132.406 L13.436,130.655 L15.279,132.473 L13.858,134.224 L12.015,132.406 Z" class="cls-1"/>
    <path d="M37.746,86.632 C36.302,87.544 35.376,88.714 34.602,90.129 C34.922,90.592 35.020,91.044 35.019,91.413 C35.019,93.245 34.610,95.023 33.801,96.696 C33.023,98.309 31.909,99.756 30.491,100.998 C29.077,102.237 27.431,103.209 25.599,103.888 C23.704,104.590 21.693,104.945 19.621,104.945 C17.549,104.945 15.538,104.590 13.643,103.888 C11.811,103.209 10.165,102.237 8.751,100.998 C7.333,99.756 6.219,98.309 5.441,96.696 C4.782,95.331 4.402,93.895 4.279,92.419 C3.870,92.388 3.810,92.371 4.276,92.353 C4.265,92.215 4.258,92.077 4.252,91.939 C-1.703,82.844 -0.626,84.625 2.583,87.789 C2.266,87.191 2.231,86.493 2.237,85.812 C2.239,85.586 2.489,85.340 2.729,85.440 C3.380,85.712 4.158,85.709 4.886,85.784 C4.899,84.810 5.189,83.812 6.212,83.475 C7.150,83.166 8.179,83.966 8.858,84.692 C9.456,83.707 10.443,82.503 11.676,82.446 C11.203,79.551 13.527,79.196 15.628,80.676 C17.367,78.136 19.777,78.554 21.430,80.941 C22.906,79.399 24.542,79.319 25.741,81.021 C25.829,80.961 25.923,80.906 26.029,80.859 C27.031,80.420 27.953,81.362 28.560,82.155 C29.064,81.717 29.567,81.290 29.937,80.717 C30.148,80.390 30.757,80.389 30.838,80.834 C30.967,81.550 31.349,82.245 31.700,82.908 C32.656,82.444 33.772,82.097 34.643,82.876 C35.246,83.415 35.156,84.376 34.850,85.160 C35.827,85.061 36.846,85.291 37.747,85.739 C38.112,85.921 38.056,86.437 37.746,86.632 ZM31.300,90.712 C31.227,90.480 31.178,90.247 31.146,90.015 C30.988,89.963 30.827,89.912 30.652,89.863 C30.712,90.113 30.757,90.375 30.767,90.661 C30.783,91.133 30.112,91.185 29.972,90.768 C29.821,90.318 29.616,89.916 29.376,89.554 C28.793,89.432 28.155,89.322 27.468,89.224 C28.064,89.701 28.514,90.386 28.785,91.110 C28.941,91.168 29.090,91.237 29.233,91.318 C30.374,91.118 31.519,90.919 32.667,90.728 C32.426,90.545 32.095,90.370 31.677,90.205 C31.672,90.355 31.672,90.507 31.681,90.661 C31.694,90.886 31.363,90.914 31.300,90.712 ZM28.445,87.405 C28.624,86.484 28.763,84.579 27.298,84.655 C26.198,84.711 25.604,85.526 25.143,86.419 C24.983,86.727 24.500,86.716 24.338,86.419 C24.048,85.890 23.705,85.372 23.445,84.822 C22.819,85.431 22.104,85.979 21.718,86.762 C21.598,87.005 21.259,87.011 21.079,86.844 C20.689,86.434 20.245,86.090 19.748,85.812 C18.842,85.975 18.406,86.364 18.427,86.974 C18.827,86.967 19.216,86.950 19.621,86.950 C21.573,86.950 23.460,87.035 25.206,87.191 C26.297,86.959 27.463,87.019 28.445,87.405 ZM28.872,91.917 C27.534,92.157 26.032,92.399 24.436,92.621 C24.495,92.696 24.537,92.782 24.537,92.880 C24.537,93.131 24.311,93.335 24.032,93.335 C23.753,93.335 23.526,93.131 23.526,92.880 C23.526,92.831 23.542,92.785 23.558,92.741 C23.299,92.775 23.037,92.808 22.775,92.840 C22.729,92.938 22.642,93.017 22.516,93.017 C22.417,93.017 22.341,92.968 22.286,92.902 C19.669,93.219 16.930,93.462 14.381,93.551 C16.023,93.690 17.800,93.766 19.621,93.766 C23.531,93.766 27.180,93.434 29.720,92.850 C29.553,92.462 29.250,92.141 28.872,91.917 ZM18.892,91.393 L18.731,91.735 L18.366,91.561 C18.247,91.505 18.119,91.477 17.985,91.477 C17.736,91.477 17.513,91.581 17.361,91.745 C17.491,92.012 17.625,92.276 17.757,92.543 C18.671,92.556 19.580,92.536 20.485,92.482 C20.197,91.922 19.911,91.362 19.604,90.813 C19.288,90.901 19.025,91.109 18.892,91.393 ZM14.014,90.891 C13.946,90.809 13.879,90.726 13.811,90.643 C13.658,90.717 13.526,90.811 13.404,90.915 C13.728,91.040 14.014,91.235 14.218,91.496 C14.619,91.288 15.077,91.176 15.545,91.176 C15.898,91.176 16.238,91.248 16.559,91.368 C16.383,91.101 16.214,90.828 16.028,90.567 C15.523,90.465 15.017,90.363 14.498,90.441 C14.507,90.461 14.519,90.477 14.527,90.497 C14.666,90.807 14.269,91.200 14.014,90.891 ZM11.772,91.864 C11.834,91.875 11.898,91.886 11.960,91.897 C11.940,91.834 11.935,91.764 11.945,91.688 C11.877,91.738 11.825,91.800 11.772,91.864 ZM12.955,91.490 C12.893,91.614 12.841,91.749 12.799,91.897 C12.783,91.953 12.756,91.996 12.729,92.036 C13.084,92.100 13.429,92.159 13.772,92.215 L13.730,92.114 C13.600,91.800 13.305,91.574 12.955,91.490 ZM17.049,92.429 L16.628,92.164 C16.309,91.964 15.934,91.858 15.545,91.858 C15.100,91.858 14.669,91.999 14.328,92.256 L14.281,92.292 C14.608,92.340 14.933,92.387 15.241,92.417 C15.942,92.484 16.638,92.518 17.332,92.536 C17.262,92.431 17.192,92.327 17.123,92.221 L17.049,92.429 ZM22.369,92.333 C22.718,92.298 23.066,92.254 23.414,92.212 C23.414,92.211 23.413,92.210 23.412,92.209 C23.288,91.877 23.224,91.540 23.199,91.210 C23.075,91.188 22.948,91.176 22.819,91.176 C22.631,91.176 22.448,91.214 22.270,91.263 C22.260,91.603 22.280,91.956 22.369,92.333 ZM23.819,92.097 C23.823,92.122 23.821,92.144 23.819,92.165 C24.550,92.073 25.280,91.968 26.009,91.855 C25.799,91.682 25.529,91.585 25.244,91.585 C25.031,91.585 24.824,91.638 24.644,91.739 L24.386,91.884 L24.173,91.689 C24.052,91.578 23.914,91.490 23.769,91.414 C23.766,91.642 23.779,91.873 23.819,92.097 ZM21.610,91.570 C21.608,91.572 21.605,91.572 21.603,91.574 L21.192,91.884 L21.005,91.432 C20.922,91.233 20.773,91.067 20.586,90.950 C20.870,91.449 21.131,91.953 21.369,92.419 C21.505,92.408 21.642,92.402 21.779,92.390 C21.695,92.106 21.642,91.834 21.610,91.570 ZM20.064,90.099 C20.640,90.135 21.167,90.397 21.493,90.815 C21.525,90.798 21.562,90.792 21.595,90.777 C21.654,89.991 21.952,89.323 22.407,88.777 C21.508,88.740 20.577,88.719 19.621,88.719 C19.390,88.719 19.166,88.724 18.938,88.726 C19.346,89.102 19.720,89.577 20.064,90.099 ZM23.479,88.832 C22.921,89.279 22.536,89.859 22.365,90.549 C22.515,90.525 22.665,90.495 22.819,90.495 C22.954,90.495 23.086,90.508 23.216,90.525 C23.323,89.836 23.694,89.246 24.340,88.892 C24.056,88.871 23.772,88.850 23.479,88.832 ZM25.362,89.355 C24.505,89.452 24.044,90.005 23.860,90.693 C24.090,90.782 24.309,90.893 24.505,91.039 C24.738,90.950 24.989,90.904 25.244,90.904 C25.629,90.904 25.999,91.008 26.312,91.200 C26.730,91.006 27.194,90.904 27.669,90.904 C27.731,90.904 27.790,90.914 27.851,90.918 C27.358,89.994 26.483,89.230 25.362,89.355 ZM26.975,91.696 C27.179,91.663 27.384,91.630 27.588,91.596 C27.377,91.603 27.172,91.637 26.975,91.696 ZM4.840,89.875 C5.114,89.562 5.511,89.251 6.052,88.961 C5.880,88.914 5.699,88.890 5.508,88.912 C4.946,88.978 4.666,89.265 4.562,89.632 C4.655,89.713 4.746,89.795 4.840,89.875 ZM6.276,91.021 C6.454,91.153 6.633,91.283 6.812,91.407 C6.894,91.402 6.974,91.391 7.057,91.387 C7.093,91.081 7.130,90.736 7.112,90.401 C6.713,90.597 6.435,90.805 6.276,91.021 ZM7.946,91.384 C8.941,91.415 9.970,91.556 10.986,91.726 C11.239,91.263 11.702,90.934 12.274,90.825 C12.502,90.441 12.808,90.126 13.181,89.898 C12.921,89.615 12.641,89.359 12.323,89.149 C10.493,89.384 8.969,89.704 7.888,90.083 C7.974,90.511 8.010,90.952 7.946,91.384 ZM9.653,87.797 C10.132,87.700 10.667,87.620 11.196,87.538 C10.086,87.303 8.784,87.333 8.121,88.170 C8.592,88.037 9.095,87.911 9.653,87.797 ZM13.429,89.021 C13.618,89.180 13.800,89.353 13.962,89.557 C14.116,89.512 14.274,89.474 14.435,89.449 C14.279,89.278 14.112,89.125 13.944,88.971 C13.771,88.988 13.598,89.004 13.429,89.021 ZM17.161,88.966 C16.985,89.199 16.513,89.167 16.532,88.810 C16.319,88.904 16.102,89.025 15.875,89.209 C15.960,89.312 16.029,89.424 16.107,89.531 C16.448,89.622 16.777,89.754 17.076,89.936 C17.407,90.137 17.292,90.723 16.869,90.696 C16.859,90.696 16.849,90.694 16.840,90.693 C16.909,90.823 16.970,90.959 17.037,91.090 C17.304,90.908 17.630,90.795 17.985,90.795 C18.114,90.795 18.243,90.810 18.368,90.838 C18.583,90.550 18.895,90.342 19.249,90.216 C19.191,90.126 19.145,90.028 19.084,89.939 C18.651,89.316 18.197,88.916 17.711,88.749 C17.569,88.753 17.427,88.757 17.287,88.762 C17.247,88.832 17.209,88.903 17.161,88.966 ZM32.990,91.052 C32.194,91.260 31.102,91.498 29.813,91.743 C30.173,92.086 30.439,92.512 30.556,92.994 C32.172,92.550 33.125,92.004 33.125,91.413 C33.125,91.291 33.069,91.171 32.990,91.052 ZM19.621,103.241 C24.269,103.241 28.368,101.185 30.797,98.054 C30.249,98.313 29.601,98.553 28.858,98.769 C26.385,99.487 23.105,99.883 19.621,99.883 C16.137,99.883 12.857,99.487 10.384,98.769 C9.641,98.553 8.993,98.313 8.445,98.054 C10.874,101.185 14.973,103.241 19.621,103.241 ZM7.102,95.794 C7.102,95.817 7.104,95.841 7.106,95.864 C7.211,96.091 7.324,96.315 7.445,96.535 C7.970,97.111 9.075,97.672 10.617,98.120 C13.017,98.817 16.214,99.201 19.621,99.201 C23.028,99.201 26.225,98.817 28.625,98.120 C30.167,97.672 31.272,97.111 31.797,96.535 C31.918,96.315 32.031,96.091 32.137,95.864 C32.139,95.840 32.140,95.817 32.140,95.794 L32.168,95.794 C32.611,94.823 32.910,93.789 33.044,92.711 C32.864,92.835 32.654,92.953 32.416,93.066 C31.676,93.414 30.639,93.723 29.334,93.984 C26.731,94.503 23.282,94.789 19.621,94.789 C15.960,94.789 12.511,94.503 9.908,93.984 C8.722,93.747 7.770,93.469 7.049,93.158 C6.766,93.099 6.500,93.032 6.248,92.958 C6.396,93.946 6.666,94.899 7.074,95.794 L7.102,95.794 ZM4.252,91.929 C4.251,91.903 4.248,91.878 4.247,91.853 C4.178,91.772 4.099,91.695 4.046,91.608 C4.113,91.718 4.183,91.823 4.252,91.929 ZM3.829,88.976 C3.904,88.860 3.978,88.743 4.074,88.646 C3.803,88.614 3.530,88.564 3.288,88.470 C3.464,88.637 3.644,88.806 3.829,88.976 ZM9.283,85.199 C9.534,85.572 9.073,86.061 8.727,85.709 C8.214,85.187 7.615,84.439 6.850,84.293 C5.772,84.088 5.691,85.449 5.604,86.186 C5.578,86.398 5.394,86.607 5.155,86.526 C4.444,86.284 3.732,86.389 3.025,86.292 C3.041,86.899 3.114,87.590 3.729,87.785 C4.134,87.912 4.552,87.997 4.960,88.115 C4.962,88.116 4.963,88.117 4.965,88.118 C5.118,88.070 5.276,88.035 5.436,88.019 C6.115,87.955 6.648,88.160 7.054,88.512 C7.149,88.476 7.255,88.443 7.355,88.408 C7.791,86.083 10.696,86.197 13.011,87.303 C14.221,87.170 15.489,87.062 16.838,87.007 C16.854,86.750 16.844,86.494 16.767,86.239 C16.332,84.799 15.111,85.052 13.991,85.501 C13.772,85.589 13.479,85.408 13.433,85.187 C12.816,82.189 10.517,83.351 9.283,85.199 ZM25.164,84.410 C24.951,83.592 24.792,82.487 25.172,81.687 C24.532,80.804 23.402,80.880 21.769,81.944 C21.564,82.210 21.157,82.273 20.964,81.944 C19.784,79.922 17.462,79.399 16.139,81.566 C15.981,81.824 15.640,81.858 15.421,81.658 C14.200,80.542 12.255,80.705 12.225,82.483 C13.251,82.686 13.777,83.515 14.139,84.466 C15.205,84.072 16.533,83.960 17.232,85.038 C17.591,85.592 17.758,86.291 17.755,86.988 C17.821,86.986 17.889,86.985 17.956,86.984 C17.790,86.173 17.820,85.320 18.690,84.935 C19.562,84.548 20.557,85.297 21.260,85.917 C21.817,85.042 22.621,84.458 23.282,83.615 C23.508,83.327 23.986,83.513 24.071,83.823 C24.210,84.332 24.483,84.809 24.758,85.276 C24.945,85.021 25.148,84.815 25.357,84.632 C25.271,84.602 25.196,84.535 25.164,84.410 ZM34.003,83.789 C33.665,82.886 32.175,83.775 31.739,84.004 C31.511,84.123 31.181,84.075 31.056,83.825 C30.762,83.239 30.398,82.617 30.146,81.976 C29.733,82.392 29.275,82.756 28.813,83.152 C28.579,83.352 28.266,83.315 28.092,83.059 C27.971,82.881 26.806,81.125 26.156,81.723 C26.182,81.773 26.208,81.816 26.233,81.868 C26.401,82.221 26.084,82.535 25.792,82.503 C25.666,83.065 25.728,83.646 25.816,84.231 C25.819,84.254 25.814,84.273 25.813,84.295 C27.766,83.107 30.109,84.655 29.322,87.752 C29.406,87.769 29.506,87.780 29.589,87.797 C30.217,87.925 30.783,88.068 31.300,88.220 C31.566,87.351 32.100,86.560 32.849,85.958 C33.156,85.710 33.490,85.535 33.833,85.401 C33.953,84.860 34.174,84.244 34.003,83.789 ZM32.060,88.468 C32.387,88.585 32.695,88.706 32.961,88.835 C33.284,88.991 33.545,89.156 33.777,89.324 C34.417,88.137 35.309,87.128 36.394,86.310 C34.456,85.752 32.785,86.790 32.060,88.468 ZM23.021,91.790 C23.021,91.890 22.931,91.972 22.819,91.972 C22.708,91.972 22.617,91.890 22.617,91.790 C22.617,91.689 22.708,91.608 22.819,91.608 C22.931,91.608 23.021,91.689 23.021,91.790 Z" class="cls-1"/>
    <path d="M31.928,59.640 C31.582,60.022 31.114,60.225 30.537,60.245 L20.429,60.593 C20.428,60.593 20.428,60.593 20.427,60.593 L15.134,60.775 C15.134,60.775 15.134,60.775 15.134,60.775 L4.692,61.134 C4.642,61.136 4.594,61.130 4.547,61.118 C4.545,61.117 4.542,61.116 4.540,61.116 C4.272,61.044 4.114,60.764 4.187,60.491 C4.205,60.424 4.235,60.363 4.274,60.311 L16.534,37.185 C17.054,36.204 18.122,35.796 19.321,36.120 C19.713,36.225 20.088,36.402 20.436,36.645 C20.631,36.781 25.242,40.027 28.433,45.282 C31.623,50.535 32.531,56.739 32.568,57.001 C32.571,57.017 32.572,57.034 32.573,57.051 C32.626,58.257 32.416,59.104 31.928,59.640 ZM15.358,59.744 L15.962,59.724 L20.154,59.579 C20.492,59.092 20.708,58.630 20.770,58.263 C21.057,56.535 19.936,54.894 18.204,54.607 C17.380,54.470 16.550,54.668 15.868,55.165 C15.186,55.662 14.734,56.398 14.594,57.237 C14.446,58.126 14.869,59.081 15.358,59.744 ZM15.494,41.452 C15.467,41.454 15.443,41.444 15.417,41.442 L5.535,60.083 L14.191,59.785 C13.751,59.000 13.444,58.027 13.602,57.073 C13.787,55.963 14.384,54.991 15.285,54.335 C16.186,53.679 17.283,53.417 18.372,53.598 C20.660,53.982 22.141,56.145 21.761,58.427 C21.698,58.811 21.542,59.191 21.358,59.538 L25.560,59.393 C25.364,58.545 25.671,57.836 25.976,57.208 C26.338,56.464 26.625,55.876 26.214,55.012 C25.792,54.126 25.372,54.029 24.794,53.895 C24.223,53.763 23.510,53.597 22.865,52.679 C22.177,51.697 22.381,50.888 22.544,50.238 C22.701,49.615 22.815,49.166 22.252,48.487 C21.714,47.839 21.237,47.774 20.633,47.691 C19.996,47.604 19.203,47.496 18.454,46.590 C17.653,45.620 17.934,44.672 18.160,43.910 C18.384,43.156 18.488,42.705 18.037,42.193 C17.124,41.155 16.419,41.290 15.852,41.398 C15.716,41.424 15.596,41.445 15.494,41.452 ZM27.576,45.822 C24.500,40.757 19.911,37.522 19.864,37.490 C19.614,37.315 19.335,37.183 19.058,37.108 C18.782,37.034 17.849,36.854 17.418,37.666 L16.002,40.338 C16.676,40.243 17.694,40.265 18.788,41.509 C19.635,42.471 19.351,43.429 19.123,44.199 C18.899,44.954 18.794,45.407 19.226,45.929 C19.726,46.535 20.188,46.598 20.772,46.678 C21.424,46.767 22.235,46.877 23.022,47.825 C23.917,48.904 23.696,49.781 23.519,50.486 C23.372,51.066 23.267,51.485 23.685,52.081 C24.109,52.686 24.512,52.779 25.023,52.898 C25.676,53.048 26.489,53.238 27.119,54.563 C27.744,55.876 27.263,56.864 26.877,57.657 C26.533,58.363 26.353,58.797 26.578,59.358 L30.509,59.223 C30.810,59.212 31.033,59.123 31.192,58.948 C31.475,58.637 31.605,58.008 31.569,57.129 C31.505,56.703 30.558,50.732 27.576,45.822 ZM18.600,49.460 C18.347,50.987 16.919,52.027 15.419,51.778 C15.328,51.763 15.240,51.744 15.154,51.720 C13.777,51.349 12.919,49.989 13.158,48.556 C13.412,47.029 14.839,45.989 16.340,46.238 C17.866,46.488 18.854,47.937 18.600,49.460 ZM16.341,47.284 C16.286,47.269 16.230,47.257 16.172,47.248 C15.218,47.089 14.311,47.750 14.149,48.721 C13.988,49.689 14.616,50.611 15.586,50.768 C16.540,50.927 17.447,50.266 17.609,49.295 C17.760,48.384 17.216,47.520 16.341,47.284 ZM9.251,58.565 C9.191,58.555 9.132,58.543 9.075,58.527 C9.075,58.527 9.075,58.527 9.074,58.527 C8.156,58.280 7.583,57.371 7.742,56.416 C7.824,55.922 8.090,55.489 8.491,55.197 C8.892,54.904 9.380,54.788 9.866,54.868 C10.890,55.037 11.543,56.003 11.374,57.018 C11.292,57.512 11.026,57.945 10.625,58.237 C10.224,58.529 9.736,58.646 9.251,58.565 ZM9.778,55.895 C9.752,55.888 9.725,55.883 9.698,55.878 C9.478,55.841 9.256,55.894 9.074,56.027 C8.892,56.159 8.771,56.356 8.734,56.580 C8.657,57.042 8.955,57.477 9.419,57.556 C9.639,57.593 9.860,57.540 10.042,57.407 C10.225,57.275 10.345,57.078 10.382,56.854 C10.455,56.420 10.195,56.008 9.778,55.895 Z" class="cls-1"/>
    <path d="M31.983,12.950 C31.665,13.041 31.301,13.079 30.925,13.107 C32.534,14.935 32.351,16.144 31.250,16.944 C35.497,22.599 23.044,22.564 20.196,22.539 C16.931,22.510 12.802,23.665 9.733,22.288 C8.524,21.746 7.341,20.619 7.237,19.238 C7.176,18.429 7.410,17.742 7.969,17.424 C6.912,16.647 6.539,15.474 7.823,14.178 C7.765,13.783 7.816,13.352 7.931,12.942 C6.939,12.912 6.046,12.442 6.191,11.241 C6.323,10.146 7.194,9.351 8.216,9.103 C5.702,-1.568 32.779,-4.667 32.508,9.738 C32.505,9.876 32.455,10.025 32.372,10.147 C33.081,11.058 33.535,12.506 31.983,12.950 ZM9.366,20.982 C10.017,21.525 10.899,21.740 11.735,21.813 C13.146,21.936 14.555,21.891 15.966,21.790 C17.812,21.658 19.623,21.628 21.470,21.612 C23.976,21.591 33.299,21.733 30.464,17.388 C27.575,18.674 21.716,18.493 19.939,18.543 C16.609,18.638 13.095,18.988 9.817,18.231 C9.482,18.154 9.162,18.048 8.862,17.920 C7.350,18.653 8.559,20.308 9.366,20.982 ZM9.181,17.096 C10.360,17.463 11.597,17.605 12.830,17.654 C15.204,17.748 17.566,17.599 19.939,17.549 C22.065,17.503 24.185,17.649 26.310,17.458 C27.597,17.342 29.201,17.227 30.339,16.543 C31.754,15.692 30.917,14.477 30.152,13.467 C30.076,13.367 30.068,13.262 30.098,13.166 C29.230,13.243 28.432,13.421 28.136,14.212 C27.156,16.836 23.982,15.925 22.969,13.874 C21.694,15.008 20.215,14.524 19.434,13.179 C19.227,14.011 18.662,14.819 17.916,15.163 C16.811,15.672 15.737,15.374 14.908,14.522 C14.887,14.500 14.878,14.477 14.863,14.455 C14.816,14.512 14.748,14.552 14.656,14.546 C14.063,14.506 13.576,14.849 12.989,14.829 C12.662,14.817 12.393,14.610 12.166,14.375 C11.470,15.402 10.098,15.966 8.889,15.500 C8.620,15.396 8.412,15.254 8.250,15.087 C7.838,15.976 7.869,16.687 9.181,17.096 ZM8.538,10.123 C8.488,9.998 8.447,9.874 8.405,9.750 C7.899,10.034 7.432,10.433 7.215,10.935 C6.772,11.959 7.651,12.180 8.519,12.102 C8.858,12.072 8.991,12.460 8.873,12.710 C8.472,13.559 8.417,14.907 9.726,14.883 C10.678,14.866 11.273,14.321 11.790,13.586 C11.947,13.364 12.252,13.358 12.408,13.586 C13.114,14.623 13.831,13.808 14.732,13.998 C14.793,14.011 14.836,14.044 14.868,14.083 C14.984,13.924 15.224,13.846 15.427,14.012 C16.140,14.595 17.112,14.933 17.874,14.211 C18.374,13.738 18.605,13.188 18.844,12.595 C18.809,12.595 18.773,12.596 18.738,12.597 C16.158,12.644 10.867,12.972 9.002,10.470 C8.815,10.460 8.629,10.353 8.538,10.123 ZM31.050,8.634 C31.028,8.351 30.988,8.071 30.928,7.794 C30.829,7.370 30.722,6.944 30.550,6.541 C30.150,5.606 29.545,4.750 28.769,4.079 C23.853,-0.173 8.769,0.305 9.378,8.809 C9.637,8.845 9.885,8.994 10.004,9.292 C10.687,10.993 14.580,10.977 16.024,11.024 C18.800,11.114 21.592,10.949 24.348,10.613 C26.554,10.344 29.205,10.160 31.249,9.211 C30.862,9.391 31.088,9.008 31.050,8.634 ZM19.637,12.576 C20.340,13.844 21.746,14.240 22.853,13.022 C23.023,12.834 23.368,12.931 23.426,13.171 C23.984,15.478 27.406,16.113 27.659,13.260 C27.673,13.099 27.782,12.976 27.954,12.971 C28.741,12.946 29.017,12.693 29.667,12.482 C29.718,12.469 29.769,12.469 29.821,12.482 C31.184,12.950 31.850,12.286 31.821,10.493 C28.178,12.086 23.629,12.469 19.637,12.576 ZM26.957,4.494 C27.476,4.379 28.229,4.915 28.192,5.461 C28.181,5.620 28.049,5.718 27.890,5.687 C27.643,5.639 27.527,5.441 27.333,5.309 C27.279,5.272 27.228,5.235 27.178,5.220 C27.176,5.223 27.174,5.224 27.172,5.228 C27.142,5.285 27.109,5.336 27.076,5.391 C26.981,5.547 26.970,5.788 26.951,5.964 C26.915,6.312 26.429,6.316 26.399,5.964 C26.357,5.482 26.322,4.636 26.957,4.494 ZM27.375,7.222 C27.356,7.459 27.330,7.992 27.708,7.973 C28.082,7.955 28.319,7.615 28.660,7.510 C28.842,7.454 29.032,7.676 28.917,7.838 C28.657,8.204 27.969,8.484 27.522,8.307 C27.113,8.145 27.039,7.597 26.997,7.222 C26.971,6.985 27.396,6.980 27.375,7.222 ZM16.512,5.145 C16.260,4.934 16.252,4.591 16.203,4.292 C16.182,4.161 16.150,4.058 16.098,3.963 C16.050,3.997 15.999,4.028 15.962,4.069 C15.921,4.113 15.927,4.103 15.935,4.193 C15.960,4.450 16.003,4.699 15.982,4.958 C15.949,5.347 15.424,5.335 15.376,4.958 C15.337,4.640 15.147,4.355 15.171,4.027 C15.204,3.565 15.598,3.291 15.990,3.111 C16.146,3.039 16.346,3.033 16.471,3.172 C16.713,3.441 16.868,3.720 16.905,4.080 C16.937,4.379 17.039,4.739 16.961,5.028 C16.906,5.232 16.661,5.269 16.512,5.145 ZM14.342,8.189 C14.311,8.211 14.268,8.239 14.249,8.272 C14.243,8.283 14.241,8.294 14.240,8.302 C14.243,8.310 14.247,8.319 14.253,8.326 C14.299,8.377 14.348,8.425 14.403,8.468 C14.549,8.579 14.694,8.691 14.838,8.804 C15.047,8.969 14.820,9.292 14.588,9.227 C14.126,9.100 13.529,8.745 13.612,8.193 C13.699,7.620 14.481,7.606 14.912,7.599 C15.069,7.596 15.071,7.796 14.946,7.848 C14.738,7.933 14.527,8.060 14.342,8.189 ZM13.203,5.225 C13.162,5.249 13.105,5.291 13.080,5.375 C13.049,5.474 13.034,5.577 13.024,5.680 C13.250,5.705 13.476,5.637 13.711,5.688 C14.010,5.753 13.967,6.155 13.711,6.240 C13.547,6.295 13.411,6.407 13.232,6.434 C12.926,6.480 12.689,6.427 12.408,6.305 C12.283,6.250 12.210,6.091 12.210,5.964 C12.209,5.517 12.271,4.886 12.749,4.667 C13.112,4.501 13.459,4.583 13.838,4.523 C14.038,4.492 14.197,4.766 13.986,4.870 C13.732,4.995 13.419,5.093 13.203,5.225 Z" class="cls-1"/>
    <path d="M19.001,186.004 C11.831,186.004 5.998,180.171 5.998,173.002 C5.998,165.832 11.831,159.998 19.001,159.998 C26.171,159.998 32.004,165.831 32.004,173.002 C32.004,180.172 26.171,186.004 19.001,186.004 ZM19.001,160.880 C12.318,160.880 6.880,166.318 6.880,173.002 C6.880,179.685 12.318,185.123 19.001,185.123 C25.684,185.123 31.122,179.685 31.122,173.002 C31.122,166.318 25.684,160.880 19.001,160.880 ZM17.288,176.237 C17.202,176.323 17.089,176.366 16.976,176.366 C16.863,176.366 16.751,176.323 16.665,176.237 L14.117,173.693 C13.945,173.521 13.945,173.242 14.117,173.069 C14.289,172.897 14.569,172.897 14.741,173.069 L16.976,175.302 L23.263,169.016 C23.435,168.843 23.714,168.843 23.886,169.016 C24.058,169.188 24.058,169.467 23.886,169.639 L17.288,176.237 Z" class="cls-2"/>
  </g>
</svg>
